<svg width="149" height="68" viewBox="0 0 149 68" fill="none" xmlns="http://www.w3.org/2000/svg">
<path d="M108.896 -23.8572C125.564 -17.4197 133.652 4.77369 126.028 24.5278C118.405 44.2819 98.2894 53.9632 81.6008 47.5001C64.9122 41.037 63.9989 23.025 71.6223 3.27089C77.9752 -13.1908 86.6782 -25.4028 99.6926 -25.0983C102.807 -25.1782 105.914 -24.7592 108.896 -23.8572Z" fill="#5B7E9A"/>
<path d="M112.356 18.3721C119.734 -0.739198 116.3 -19.867 104.685 -24.351C93.0707 -28.8351 77.674 -16.9773 70.2957 2.13397C62.9174 21.2452 66.3515 40.373 77.9661 44.857C89.5806 49.3411 104.977 37.4833 112.356 18.3721Z" fill="#5B7E9A"/>
<path d="M103.456 -24.8806C103.853 -23.7024 100.052 -21.6153 96.7361 -15.9596C94.7576 -12.7411 93.3494 -9.20537 92.5733 -5.50801C92.1661 -3.4087 92.0434 -1.26412 92.2084 0.867932C92.3286 3.1935 92.6737 5.73238 92.9862 8.51983C93.3467 11.3762 93.4533 14.259 93.3046 17.1343C93.142 19.8391 92.7437 22.5245 92.1144 25.1601C91.0714 29.6499 89.2 33.9058 86.5963 37.7093C84.8564 40.3079 82.5736 42.4982 79.9053 44.1291C77.9907 45.2341 76.6967 45.3746 76.4269 44.8911C75.6612 43.8944 78.9133 40.8274 81.4698 34.7388C84.7562 26.7265 85.8664 17.9878 84.6878 9.40828C84.3232 6.65038 84.1041 3.87519 84.0312 1.09425C83.9686 -1.77424 84.3476 -4.63531 85.155 -7.38854C86.4908 -11.9209 88.8575 -16.0826 92.0699 -19.5477C94.176 -21.9302 96.8437 -23.7489 99.8309 -24.8389C100.303 -24.991 100.784 -25.116 101.271 -25.2132C101.646 -25.2673 102.025 -25.2868 102.404 -25.2714C103.031 -25.3195 103.382 -25.1892 103.456 -24.8806Z" fill="#5B7E9A"/>
<g opacity="0.3">
<path d="M103.436 -24.9868C103.231 -24.8297 103.257 -24.8494 103.027 -24.6727C100.171 -23.4804 97.6376 -21.6315 95.6311 -19.2761C94.1993 -17.7023 92.954 -15.9684 91.9198 -14.1089C90.6956 -11.9568 89.7248 -9.6701 89.0268 -7.29458C88.2698 -4.6308 87.9191 -1.86801 87.9867 0.900413C88.0831 3.67102 88.3602 6.46529 88.6522 9.14662C89.8716 17.9128 88.6287 26.8453 85.0625 34.9456C83.4956 38.0697 81.6589 41.051 79.5734 43.8557L79.9823 43.5416C82.5057 41.8234 84.659 39.6167 86.3147 37.0518C86.889 36.2653 87.3523 35.3607 87.8962 34.4553C88.4402 33.5498 88.8928 32.5519 89.3061 31.5029C90.2585 29.2992 91.0047 27.0119 91.535 24.6705C92.1305 22.0822 92.5066 19.4483 92.6593 16.7968L92.7256 14.714C92.7271 14.0018 92.7059 13.2865 92.6848 12.5713C92.6072 11.1476 92.5197 9.71121 92.33 8.35333C92.0273 5.57866 91.6754 3.00436 91.564 0.611012C91.4343 -1.60128 91.6017 -3.82098 92.0617 -5.9888C92.5008 -7.98846 93.1302 -9.94155 93.9411 -11.8214C94.6634 -13.4844 95.5191 -15.0861 96.4997 -16.6111C97.9423 -18.8351 99.6798 -20.8533 101.665 -22.6105C102.035 -22.8951 102.263 -23.2329 102.541 -23.5068C102.818 -23.7808 103.103 -23.9387 103.261 -24.1823C103.42 -24.4258 103.432 -24.7805 103.436 -24.9868Z" fill="#2A3440"/>
</g>
<path d="M86.9199 -9.45526C86.7706 -8.73888 86.5631 -8.03585 86.2995 -7.35321C85.772 -5.4392 85.4489 -3.47465 85.3357 -1.49251C85.2026 1.45141 85.3078 4.40125 85.65 7.32822C85.9848 10.6472 86.4942 14.2993 86.6133 18.2106C86.7077 21.9175 86.095 25.6085 84.8081 29.0862C83.7986 31.9007 82.5309 34.6159 81.0211 37.1968C79.767 39.3996 78.6164 41.0759 77.8797 42.3123C77.5114 42.9544 77.0706 43.5521 76.5659 44.0936C76.8506 43.4166 77.1936 42.7656 77.591 42.148C78.2825 40.9057 79.3418 39.137 80.5183 36.9125C81.92 34.3177 83.1121 31.615 84.0832 28.8303C85.2576 25.4391 85.8082 21.8632 85.7085 18.2758C85.603 14.4353 85.1034 10.7959 84.8296 7.45049C84.5132 4.48151 84.4593 1.49039 84.6686 -1.48806C84.8452 -3.50281 85.2638 -5.48896 85.9154 -7.40359C86.166 -8.12561 86.5033 -8.81454 86.9199 -9.45526Z" fill="#263238"/>
<path d="M101.886 -22.9836C101.984 -22.8558 100.335 -21.3252 98.1808 -18.3901C95.3742 -14.5835 93.3774 -10.2421 92.3138 -5.63388C91.1253 -0.250804 92.1889 4.78404 92.4251 8.5038C92.5666 9.95564 92.6018 11.4159 92.5302 12.8728C92.5367 13.4079 92.4591 13.9406 92.3002 14.4515C92.1647 14.4337 92.3322 12.1919 91.8425 8.5653C91.3527 4.93871 90.3078 -0.151139 91.5515 -5.77979C92.6344 -10.4923 94.7598 -14.9021 97.7713 -18.6851C98.6787 -19.8263 99.6646 -20.9027 100.722 -21.9066C101.058 -22.3174 101.45 -22.6799 101.886 -22.9836Z" fill="#263238"/>
<path d="M110.152 -20.5553C110.357 -20.4097 110.539 -20.2348 110.693 -20.0362C111.171 -19.4973 111.611 -18.925 112.008 -18.3238C113.455 -16.1122 114.563 -13.6972 115.298 -11.1585C116.38 -7.38245 116.889 -3.46522 116.808 0.462063C116.785 2.78057 116.57 5.09322 116.165 7.37618C115.658 9.80651 115.002 12.2035 114.201 14.5537C111.424 22.8218 106.944 30.416 101.051 36.8466C99.2466 38.7798 97.2054 40.4774 94.9759 41.8992C94.3778 42.2971 93.748 42.645 93.0928 42.9394C92.8804 43.0602 92.6557 43.1579 92.4225 43.2307C92.4225 43.2307 93.2276 42.6123 94.8051 41.6241C96.9266 40.1149 98.8768 38.3784 100.621 36.4455C106.334 29.977 110.692 22.4286 113.437 14.2466C116.44 6.15587 116.906 -2.6579 114.774 -11.0203C114.099 -13.5315 113.089 -15.9405 111.771 -18.1825C110.78 -19.7375 110.088 -20.5062 110.152 -20.5553Z" fill="#263238"/>
<g opacity="0.2">
<path d="M84.6611 -13.6127C84.2705 -13.5814 83.9047 -13.4087 83.6322 -13.1271C75.7263 -6.58845 70.514 2.63974 68.9957 12.7862C67.7708 21.1638 68.174 30.7087 72.3045 37.5936C72.5626 38.1095 72.9627 38.541 73.4576 38.8374C73.9526 39.1338 74.5218 39.2826 75.0985 39.2665C75.6752 39.2504 76.2352 39.07 76.7129 38.7464C77.1905 38.4228 77.5658 37.9696 77.7946 37.4401C80.6342 32.6987 84.228 25.4476 84.4284 19.6247C84.6342 13.1475 82.1185 6.83053 82.2211 0.35128C82.285 -3.53067 83.2612 -7.34313 85.0709 -10.778C85.3897 -11.271 85.5926 -11.8298 85.6644 -12.4125C85.6734 -12.7007 85.5762 -12.9823 85.3912 -13.2035C85.2062 -13.4248 84.9464 -13.5704 84.6611 -13.6127Z" fill="white"/>
</g>
<g opacity="0.2">
<path d="M94.1291 35.8242C94.5374 35.7943 94.919 35.6102 95.1964 35.3091C103.473 28.5013 108.945 18.8785 110.565 8.28518C111.85 -0.46374 111.467 -10.4311 107.211 -17.5853C106.93 -18.1112 106.509 -18.5489 105.994 -18.8496C105.48 -19.1504 104.891 -19.3024 104.295 -19.2889C103.699 -19.2754 103.119 -19.0967 102.618 -18.7729C102.117 -18.449 101.717 -17.9927 101.46 -17.4545C98.4905 -12.5118 94.7708 -5.00148 94.5063 1.13479C94.2875 7.8861 96.8905 14.5018 96.7749 21.2551C96.6938 25.3129 95.6599 29.2948 93.7568 32.8795C93.4239 33.3912 93.2175 33.9746 93.1544 34.5817C93.1408 34.8713 93.2318 35.1561 93.4107 35.3842C93.5897 35.6123 93.8446 35.7685 94.1291 35.8242Z" fill="#5B7E9A"/>
</g>
<path d="M108.329 -14.8071C108.631 -14.1595 108.854 -13.4783 108.994 -12.7779C109.234 -11.9757 109.427 -11.16 109.57 -10.3351C109.801 -9.23834 109.974 -8.13011 110.089 -7.01506C110.468 -4.14447 110.607 -1.24715 110.504 1.6466C110.345 5.18996 109.868 8.71186 109.078 12.1697C108.226 15.6153 107.07 18.9786 105.623 22.2199C104.416 24.8492 102.99 27.3723 101.359 29.7623C100.694 30.8013 99.9726 31.6605 99.363 32.4539C98.8663 33.1281 98.3291 33.7714 97.7544 34.3804C97.3012 34.9363 96.7955 35.4472 96.2443 35.9061C96.1363 35.7656 98.196 33.5535 100.849 29.4427C102.385 27.0358 103.738 24.5164 104.894 21.906C107.76 15.4832 109.42 8.58795 109.791 1.56457C109.927 -1.28973 109.848 -4.15016 109.557 -6.9928C109.06 -11.7924 108.162 -14.7601 108.329 -14.8071Z" fill="white"/>
</svg>
