<svg width="99" height="94" viewBox="0 0 99 94" fill="none" xmlns="http://www.w3.org/2000/svg">
<path d="M89.9039 37.0635C89.4961 39.3578 87.4807 41.2461 87.4807 41.2461C87.4807 41.2461 84.77 40.7481 83.1931 39.0321C81.8778 37.6017 81.8731 35.6379 83.0635 34.8613C84.77 33.7472 86.2032 36.87 86.2032 36.87C86.2032 36.87 85.7317 33.4664 87.7707 33.4852C89.192 33.4923 90.2433 35.1493 89.9039 37.0635Z" fill="#EBEBEB"/>
<path d="M96.0107 31.5875C94.5964 32.5529 92.5669 32.4561 92.5669 32.4561C92.5669 32.4561 91.4378 30.7708 91.5297 29.0572C91.6075 27.6269 92.6376 26.6166 93.6512 26.8456C95.1126 27.1737 94.2075 29.534 94.2075 29.534C94.2075 29.534 95.7561 27.5372 96.8003 28.6206C97.524 29.3782 97.194 30.7826 96.0107 31.5875Z" fill="#EBEBEB"/>
<path d="M37.4458 67.0707C37.566 68.7819 36.4628 70.4885 36.4628 70.4885C36.4628 70.4885 34.438 70.6183 33.0073 69.6765C31.8122 68.8905 31.4563 67.4908 32.1681 66.7237C33.1864 65.6214 34.761 67.5923 34.761 67.5923C34.761 67.5923 33.8181 65.2485 35.2725 64.8944C36.3002 64.649 37.3444 65.6427 37.4458 67.0707Z" fill="#EBEBEB"/>
<path d="M88.5579 24.9761C87.9852 25.9556 86.7476 26.4773 86.7476 26.4773C86.7476 26.4773 85.595 25.7904 85.1613 24.7424C84.8007 23.8667 85.1306 22.9698 85.8048 22.814C86.7712 22.5921 86.9009 24.2609 86.9009 24.2609C86.9009 24.2609 87.2568 22.6252 88.1855 22.9792C88.8337 23.2247 89.0364 24.1571 88.5579 24.9761Z" fill="#EBEBEB"/>
<path d="M31.5408 60.3201C30.968 61.302 29.7305 61.8212 29.7305 61.8212C29.7305 61.8212 28.5755 61.1367 28.1442 60.0864C27.7835 59.2107 28.1112 58.3138 28.7853 58.1603C29.7541 57.9385 29.8837 59.6072 29.8837 59.6072C29.8837 59.6072 30.2397 57.9715 31.1684 58.3232C31.8213 58.5687 32.017 59.5034 31.5408 60.3201Z" fill="#EBEBEB"/>
<path d="M1.76318 42.6456L13.6974 42.589L25.6316 42.5678L49.5 42.5277L73.3685 42.5678L85.3027 42.5866L97.2369 42.6456L85.3027 42.7021L73.3685 42.7234L49.5 42.7634L25.6316 42.7234L13.6974 42.7021L1.76318 42.6456Z" fill="#EBEBEB"/>
<path d="M1.76318 50.8077L13.6974 50.7511L25.6316 50.7299L49.5 50.6898L73.3685 50.7299L85.3027 50.7511L97.2369 50.8077L85.3027 50.8666L73.3685 50.8878L49.5 50.9256L25.6316 50.8855L13.6974 50.8643L1.76318 50.8077Z" fill="#EBEBEB"/>
<path d="M1.76318 58.9722L13.6974 58.9132L25.6316 58.892L49.5 58.8543L73.3685 58.892L85.3027 58.9132L97.2369 58.9722L85.3027 59.0287L73.3685 59.0499L49.5 59.09L25.6316 59.0499L13.6974 59.0287L1.76318 58.9722Z" fill="#EBEBEB"/>
<path d="M1.76318 67.1342L13.6974 67.0777L25.6316 67.0565L49.5 67.0164L73.3685 67.0565L85.3027 67.0777L97.2369 67.1342L85.3027 67.1932L73.3685 67.212L49.5 67.2521L25.6316 67.212L13.6974 67.1908L1.76318 67.1342Z" fill="#EBEBEB"/>
<path d="M1.76318 18.1546L13.6974 18.098L25.6316 18.0768L49.5 18.0391L73.3685 18.0768L85.3027 18.098L97.2369 18.1546L85.3027 18.2135L73.3685 18.2347L49.5 18.2724L25.6316 18.2347L13.6974 18.2135L1.76318 18.1546Z" fill="#EBEBEB"/>
<path d="M1.76318 26.319L13.6974 26.2624L25.6316 26.2412L49.5 26.2011L73.3685 26.2412L85.3027 26.26L97.2369 26.319L85.3027 26.3755L73.3685 26.3968L49.5 26.4368L25.6316 26.3968L13.6974 26.3755L1.76318 26.319Z" fill="#EBEBEB"/>
<path d="M1.76318 34.4811L13.6974 34.4246L25.6316 34.4034L49.5 34.3633L73.3685 34.4034L85.3027 34.4246L97.2369 34.4811L85.3027 34.5401L73.3685 34.5613L49.5 34.599L25.6316 34.5613L13.6974 34.5401L1.76318 34.4811Z" fill="#EBEBEB"/>
<path d="M1.76318 75.2964L13.6974 75.2398L25.6316 75.2186L49.5 75.1809L73.3685 75.2186L85.3027 75.2398L97.2369 75.2964L85.3027 75.3553L73.3685 75.3765L49.5 75.4142L25.6316 75.3765L13.6974 75.3553L1.76318 75.2964Z" fill="#EBEBEB"/>
<path d="M1.76318 83.4608L13.6974 83.4042L25.6316 83.383L49.5 83.343L73.3685 83.383L85.3027 83.4042L97.2369 83.4608L85.3027 83.5174L73.3685 83.5386L49.5 83.5787L25.6316 83.5386L13.6974 83.5174L1.76318 83.4608Z" fill="#EBEBEB"/>
<path d="M57.6511 11.5056L57.71 22.3916L57.7312 33.2799L57.7689 55.0565L57.7312 76.8331L57.71 87.7214L57.6511 93.653L57.5945 87.7214L57.5733 76.8331L57.5332 55.0565L57.5733 33.2799L57.5945 22.3916L57.6511 11.5056Z" fill="#EBEBEB"/>
<path d="M49.4997 11.5056L49.5563 22.3916L49.5775 33.2799L49.6176 55.0565L49.5775 76.8331L49.5586 87.7214L49.4997 93.653L49.4408 87.7214L49.4219 76.8331L49.3818 55.0565L49.4219 33.2799L49.4431 22.3916L49.4997 11.5056Z" fill="#EBEBEB"/>
<path d="M41.3488 11.5056L41.4054 22.3916L41.4266 33.2799L41.4643 55.0565L41.4266 76.8331L41.4054 87.7214L41.3488 93.653L41.2899 87.7214L41.2687 76.8331L41.231 55.0565L41.2687 33.2799L41.2899 22.3916L41.3488 11.5056Z" fill="#EBEBEB"/>
<path d="M33.1955 11.5056L33.2521 22.3916L33.2733 33.2799L33.3134 55.0565L33.2733 76.8331L33.2544 87.7214L33.1955 93.653L33.1389 87.7214L33.1177 76.8331L33.0776 55.0565L33.1177 33.2799L33.1389 22.3916L33.1955 11.5056Z" fill="#EBEBEB"/>
<path d="M82.1091 11.5056L82.1656 22.3916L82.1869 33.2799L82.2269 55.0565L82.1869 76.8331L82.1656 87.7214L82.1091 93.653L82.0501 87.7214L82.0289 76.8331L81.9912 55.0565L82.0313 33.2799L82.0501 22.3916L82.1091 11.5056Z" fill="#EBEBEB"/>
<path d="M73.9553 11.5056L74.0142 22.3916L74.033 33.2799L74.0731 55.0565L74.033 76.8331L74.0142 87.7214L73.9553 93.653L73.8987 87.7214L73.8775 76.8331L73.8374 55.0565L73.8775 33.2799L73.8987 22.3916L73.9553 11.5056Z" fill="#EBEBEB"/>
<path d="M65.8044 11.5056L65.8609 22.3916L65.8822 33.2799L65.9222 55.0565L65.8822 76.8331L65.8609 87.7214L65.8044 93.653L65.7455 87.7214L65.7266 76.8331L65.6865 55.0565L65.7266 33.2799L65.7478 22.3916L65.8044 11.5056Z" fill="#EBEBEB"/>
<path d="M90.2595 11.5056L90.316 22.3916L90.3372 33.2799L90.3773 55.0565L90.3372 76.8331L90.3184 87.7214L90.2595 93.653L90.2029 87.7214L90.1817 76.8331L90.1416 55.0565L90.1817 33.2799L90.2029 22.3916L90.2595 11.5056Z" fill="#EBEBEB"/>
<path d="M82.1091 11.5056L82.1656 22.3916L82.1869 33.2799L82.2269 55.0565L82.1869 76.8331L82.1656 87.7214L82.1091 93.653L82.0501 87.7214L82.0289 76.8331L81.9912 55.0565L82.0313 33.2799L82.0501 22.3916L82.1091 11.5056Z" fill="#EBEBEB"/>
<path d="M25.0446 11.5056L25.1012 22.3916L25.1224 33.2799L25.1625 55.0565L25.1224 76.8331L25.1012 87.7214L25.0446 93.653L24.9857 87.7214L24.9645 76.8331L24.9268 55.0565L24.9668 33.2799L24.9857 22.3916L25.0446 11.5056Z" fill="#EBEBEB"/>
<path d="M16.8913 11.5056L16.9502 22.3916L16.9691 33.2799L17.0092 55.0565L16.9714 76.8331L16.9502 87.7214L16.8913 93.653L16.8347 87.7214L16.8135 76.8331L16.7734 55.0565L16.8135 33.2799L16.8347 22.3916L16.8913 11.5056Z" fill="#EBEBEB"/>
<path d="M8.74042 11.5056L8.79699 22.3916L8.8182 33.2799L8.85827 55.0565L8.8182 76.8331L8.79699 87.7214L8.74042 93.653L8.68149 87.7214L8.66263 76.8331L8.62256 55.0565L8.66263 33.2799L8.68149 22.3916L8.74042 11.5056Z" fill="#EBEBEB"/>
<path d="M91.7423 1.59692H66.9546V19.5144H91.7423V1.59692Z" fill="#EBEBEB"/>
<path d="M89.4018 3.94067H69.293V17.1728H89.4018V3.94067Z" fill="white"/>
<path d="M89.4018 3.94067H69.293V17.1728H89.4018V3.94067Z" fill="white"/>
<path d="M89.4018 3.93835H69.293V17.1705H89.4018V3.93835Z" fill="white"/>
<g opacity="0.2">
<path d="M80.8453 3.93835L69.293 15.5064V11.3499L76.6944 3.93835H80.8453Z" fill="#EBEBEB"/>
<path d="M89.4018 8.73462V10.1036L82.3422 17.1729H80.9727L89.4018 8.73462Z" fill="#EBEBEB"/>
<path d="M73.5005 3.93835L69.293 8.15159V7.69368L73.0432 3.93835H73.5005Z" fill="#EBEBEB"/>
<path d="M89.4017 13.0375V13.4954L85.7293 17.1729H85.272L89.4017 13.0375Z" fill="#EBEBEB"/>
<path d="M89.2881 3.93835L76.074 17.1729H75.6167L88.8332 3.93835H89.2881Z" fill="#EBEBEB"/>
</g>
<path d="M61.8937 1.59692H37.106V19.5144H61.8937V1.59692Z" fill="#EBEBEB"/>
<path d="M59.5551 3.94067H39.4463V17.1728H59.5551V3.94067Z" fill="white"/>
<path d="M59.5551 3.93835H39.4463V17.1705H59.5551V3.93835Z" fill="white"/>
<g opacity="0.2">
<path d="M59.5555 5.63782V9.7944L52.1871 17.1729H48.0361L59.5555 5.63782Z" fill="#EBEBEB"/>
<path d="M48.8442 3.93835L39.4463 13.3538V11.9824L47.4794 3.93835H48.8442Z" fill="#EBEBEB"/>
<path d="M43.081 3.93835L39.4463 7.58038V7.12483L42.6261 3.93835H43.081Z" fill="#EBEBEB"/>
<path d="M59.5556 12.4663V12.9242L55.3128 17.1729H54.8555L59.5556 12.4663Z" fill="#EBEBEB"/>
<path d="M51.7105 3.93835L39.4463 16.2193V15.7614L51.2532 3.93835H51.7105Z" fill="#EBEBEB"/>
</g>
<path d="M32.0475 1.59692H7.25977V19.5144H32.0475V1.59692Z" fill="#EBEBEB"/>
<path d="M29.7069 3.94067H9.59814V17.1728H29.7069V3.94067Z" fill="white"/>
<g opacity="0.2">
<path d="M24.1252 3.93835L10.9111 17.1729H9.59814V14.3286L19.9743 3.93835H24.1252Z" fill="#EBEBEB"/>
<path d="M29.707 10.0706V14.2319L26.77 17.1729H22.6167L29.707 10.0706Z" fill="#EBEBEB"/>
<path d="M12.191 3.93835L9.59814 6.53474V5.1681L10.8262 3.93835H12.191Z" fill="#EBEBEB"/>
<path d="M29.7065 5.36877V5.82668L18.3757 17.1729H17.9185L29.7065 5.36877Z" fill="#EBEBEB"/>
<path d="M18.5954 3.93835L9.59814 12.9478V12.4899L18.1381 3.93835H18.5954Z" fill="#EBEBEB"/>
</g>
<path d="M45.8767 12.6646C44.0124 11.7889 42.0416 11.1612 40.0145 10.7975C33.5347 9.65042 28.2076 11.7417 24.8557 13.7385C23.4644 14.5403 22.169 15.4985 20.9947 16.5946C20.9947 16.5946 20.7095 11.4301 21.7726 8.62603C24.0779 5.86441 27.0243 3.00366 30.23 1.18383H30.2465C30.859 0.86118 31.4885 0.572005 32.1322 0.317581C33.1882 -0.060915 34.3354 -0.102148 35.4157 0.199563H35.4605C35.7175 0.264831 35.9708 0.343618 36.2195 0.435598H36.2502C38.176 1.17911 41.3605 3.35063 43.958 5.86441C45.3417 8.15867 45.8767 12.6646 45.8767 12.6646Z" fill="#F47356"/>
<g opacity="0.2">
<path d="M45.8767 12.6646C44.0124 11.7889 42.0416 11.1612 40.0145 10.7975C33.5347 9.65042 28.2076 11.7417 24.8557 13.7385C23.4644 14.5403 22.169 15.4985 20.9947 16.5946C20.9947 16.5946 20.7095 11.4301 21.7726 8.62603C24.0779 5.86441 27.0243 3.00366 30.23 1.18383H30.2465C30.859 0.86118 31.4885 0.572005 32.1322 0.317581C33.1882 -0.060915 34.3354 -0.102148 35.4157 0.199563H35.4605C35.7175 0.264831 35.9708 0.343618 36.2195 0.435598H36.2502C38.176 1.17911 41.3605 3.35063 43.958 5.86441C45.3417 8.15867 45.8767 12.6646 45.8767 12.6646Z" fill="black"/>
</g>
<path d="M40.5829 44.1941C40.3472 44.5364 40.0761 44.8739 39.8121 45.2114C37.1651 48.5868 33.8721 51.5844 30.3341 54.2091C17.6055 63.6505 1.67121 68.2957 1.35771 68.3854C7.07143 64.7646 10.5341 57.6316 10.5341 57.6316C2.85921 55.42 0 52.1863 0 52.1863C9.40971 50.7866 16.7899 48.1737 22.5272 44.7913C26.1891 42.6673 29.4707 39.9453 32.2363 36.7378C35.8374 32.4949 38.3734 27.4515 39.633 22.0281C40.5398 18.352 40.6699 14.5268 40.0149 10.7975C38.8127 4.12477 35.4208 0.175903 35.4208 0.175903H35.4656C35.7255 0.230063 35.9797 0.309105 36.2246 0.411939H36.2552C38.181 1.15545 41.3655 3.32698 43.9631 5.84075C46.0232 7.83053 47.7156 10.0375 48.1281 11.9187C49.1252 16.4623 50.7375 30.4616 40.5829 44.1941Z" fill="#F47356"/>
<path opacity="0.1" d="M41.7398 42.5561C41.3721 43.1037 40.9863 43.6497 40.5825 44.1941C40.3468 44.5364 40.0757 44.8739 39.8117 45.2138C37.1646 48.5844 33.8717 51.5868 30.3336 54.2091C29.2163 55.0376 28.0731 55.8307 26.9205 56.5836C24.1697 53.6662 20.4006 49.6489 18.0576 47.1115C19.5918 46.4208 21.0869 45.6462 22.5362 44.7913C26.1982 42.6674 29.4798 39.9454 32.2453 36.7378C33.1562 35.6708 34.0001 34.5483 34.7721 33.3766L41.7398 42.5561Z" fill="black"/>
<path d="M98.9998 38.0006C91.3203 40.5379 87.7327 42.7992 87.7327 42.7992C87.7327 42.7992 96.2443 46.5002 98.8113 52.7008C98.8113 52.7008 89.7881 50.2602 83.3861 52.368C78.4503 53.9967 67.8007 62.0573 53.2288 62.0573C45.7143 62.0573 37.5703 60.4995 30.3292 54.2091C27.569 51.8157 24.9408 48.7355 22.527 44.7913C22.1405 44.1619 21.7586 43.5057 21.3815 42.8228C14.4939 30.4026 16.158 18.2326 16.9524 15.9478C17.3743 14.7369 19.1587 11.7416 21.768 8.63069C24.0733 5.86908 27.0198 3.00833 30.2255 1.1885L30.2467 1.1767C30.1005 1.37025 26.1193 6.64091 24.8535 13.7409C24.1761 17.2767 24.3817 20.9254 25.4523 24.3624C26.9237 28.8774 29.2253 33.0771 32.2385 36.7449C34.6021 39.6619 37.4187 42.1795 40.5804 44.2012C44.7313 46.8212 49.3183 48.3177 53.9265 48.2138C66.1271 47.9141 72.614 40.4246 82.9713 37.8849C90.9855 35.9093 98.9998 38.0006 98.9998 38.0006Z" fill="#F47356"/>
<path d="M16.9218 72.424C20.4575 75.8937 21.0539 81.2588 20.3067 85.9582C20.2878 86.0645 20.1228 86.0361 20.1228 85.9346C20.1228 84.8654 20.1558 83.8103 20.1535 82.7482C20.1322 82.7009 20.1181 82.6537 20.0969 82.6065C19.1752 81.9338 18.3267 81.1738 17.7987 80.1329C17.2094 78.9692 16.976 77.6569 16.5235 76.4413C16.4834 76.3256 16.606 76.361 16.6885 76.42C18.8405 78.0086 19.517 79.7245 20.144 82.0046C20.13 80.8091 20.0045 79.6174 19.7692 78.4452C19.2978 76.2784 18.3832 74.1281 16.8275 72.5184C16.7686 72.457 16.8605 72.3626 16.9218 72.424Z" fill="#263238"/>
<path d="M16.2642 72.83C15.6561 72.8489 15.2742 73.8237 14.8004 74.1069C14.7508 74.1475 14.6931 74.1772 14.6313 74.1941C14.5695 74.2109 14.5048 74.2146 14.4414 74.2048C14.3781 74.195 14.3175 74.172 14.2636 74.1372C14.2097 74.1025 14.1637 74.0568 14.1286 74.0031C13.6572 73.3445 14.3031 72.5349 14.9088 72.0817C14.4751 72.2588 14.1145 72.5727 13.6478 72.6624C13.5878 72.6819 13.5244 72.6884 13.4618 72.6813C13.3992 72.6742 13.3388 72.6538 13.2847 72.6213C13.2307 72.5889 13.1842 72.5452 13.1484 72.4933C13.1126 72.4413 13.0884 72.3823 13.0773 72.3201C12.8723 71.4256 13.9943 71.0267 14.7651 71.0078C14.3785 70.7505 13.3154 70.0424 13.8835 69.6954C14.4516 69.3484 15.7126 70.3563 16.1228 70.6891C16.7238 71.1777 17.4404 71.9071 17.4687 72.6718C17.5041 73.564 16.7356 73.0164 16.2642 72.83Z" fill="#F47356"/>
<path opacity="0.1" d="M16.2642 72.83C15.6561 72.8489 15.2742 73.8237 14.8004 74.1069C14.7508 74.1475 14.6931 74.1772 14.6313 74.1941C14.5695 74.2109 14.5048 74.2146 14.4414 74.2048C14.3781 74.195 14.3175 74.172 14.2636 74.1372C14.2097 74.1025 14.1637 74.0568 14.1286 74.0031C13.6572 73.3445 14.3031 72.5349 14.9088 72.0817C14.4751 72.2588 14.1145 72.5727 13.6478 72.6624C13.5878 72.6819 13.5244 72.6884 13.4618 72.6813C13.3992 72.6742 13.3388 72.6538 13.2847 72.6213C13.2307 72.5889 13.1842 72.5452 13.1484 72.4933C13.1126 72.4413 13.0884 72.3823 13.0773 72.3201C12.8723 71.4256 13.9943 71.0267 14.7651 71.0078C14.3785 70.7505 13.3154 70.0424 13.8835 69.6954C14.4516 69.3484 15.7126 70.3563 16.1228 70.6891C16.7238 71.1777 17.4404 71.9071 17.4687 72.6718C17.5041 73.564 16.7356 73.0164 16.2642 72.83Z" fill="black"/>
<path d="M16.4337 72.9786C15.6534 72.6246 14.159 73.1344 14.0317 72.8394C13.7748 72.2398 14.9746 71.8268 15.6134 71.7489C15.0194 71.586 13.8832 71.3311 13.9162 70.7575C13.961 70.0494 15.6629 70.6584 16.5232 71.3193C17.6099 72.1549 17.6028 72.9574 17.4237 73.1203C17.1762 73.3469 16.5609 73.0376 16.4337 72.9786Z" fill="#F47356"/>
<path d="M24.9857 72.0817C21.3179 75.4122 20.5212 80.7513 21.0869 85.4767C21.1034 85.583 21.2684 85.5617 21.2732 85.4602C21.3132 84.391 21.3203 83.3359 21.3651 82.2737C21.3863 82.2265 21.4028 82.1817 21.424 82.1345C22.3669 81.4972 23.2508 80.7702 23.8165 79.7505C24.4506 78.6105 24.7311 77.3075 25.2308 76.1108C25.2756 75.9976 25.1507 76.0259 25.0682 76.0825C22.8572 77.5884 22.1076 79.2714 21.4028 81.5326C21.4608 80.339 21.6312 79.1535 21.9119 77.992C22.4588 75.8418 23.4606 73.7293 25.0752 72.1809C25.0884 72.169 25.0962 72.1523 25.0971 72.1346C25.098 72.1169 25.0918 72.0996 25.0799 72.0864C25.0681 72.0733 25.0515 72.0654 25.0338 72.0645C25.0161 72.0637 24.9988 72.0698 24.9857 72.0817Z" fill="#263238"/>
<path d="M25.6263 72.5113C26.2345 72.5538 26.5692 73.5428 27.0406 73.8449C27.0887 73.8874 27.1451 73.9193 27.2063 73.9384C27.2675 73.9576 27.332 73.9635 27.3957 73.956C27.4593 73.9484 27.5206 73.9274 27.5756 73.8945C27.6306 73.8615 27.678 73.8173 27.7148 73.7647C28.2098 73.125 27.5969 72.2918 27.0076 71.815C27.4343 72.0109 27.7808 72.3366 28.2451 72.4452C28.3043 72.4665 28.3673 72.4749 28.43 72.4699C28.4926 72.4649 28.5535 72.4466 28.6086 72.4163C28.6636 72.3859 28.7116 72.3442 28.7493 72.2938C28.7871 72.2435 28.8137 72.1856 28.8273 72.1242C29.0631 71.2367 27.9599 70.7977 27.1915 70.7481C27.5757 70.5121 28.6718 69.8394 28.1155 69.4688C27.5592 69.0982 26.2628 70.0613 25.8408 70.3776C25.2209 70.8496 24.4761 71.5459 24.4266 72.3083C24.3535 73.1982 25.1526 72.6789 25.6263 72.5113Z" fill="#F47356"/>
<path opacity="0.1" d="M25.6263 72.5113C26.2345 72.5538 26.5692 73.5428 27.0406 73.8449C27.0887 73.8874 27.1451 73.9193 27.2063 73.9384C27.2675 73.9576 27.332 73.9635 27.3957 73.956C27.4593 73.9484 27.5206 73.9274 27.5756 73.8945C27.6306 73.8615 27.678 73.8173 27.7148 73.7647C28.2098 73.125 27.5969 72.2918 27.0076 71.815C27.4343 72.0109 27.7808 72.3366 28.2451 72.4452C28.3043 72.4665 28.3673 72.4749 28.43 72.4699C28.4926 72.4649 28.5535 72.4466 28.6086 72.4163C28.6636 72.3859 28.7116 72.3442 28.7493 72.2938C28.7871 72.2435 28.8137 72.1856 28.8273 72.1242C29.0631 71.2367 27.9599 70.7977 27.1915 70.7481C27.5757 70.5121 28.6718 69.8394 28.1155 69.4688C27.5592 69.0982 26.2628 70.0613 25.8408 70.3776C25.2209 70.8496 24.4761 71.5459 24.4266 72.3083C24.3535 73.1982 25.1526 72.6789 25.6263 72.5113Z" fill="black"/>
<path d="M25.4574 72.6529C26.2494 72.3295 27.7226 72.8889 27.8617 72.6057C28.1422 72.0156 26.9636 71.5601 26.3225 71.4539C26.9212 71.317 28.0691 71.1045 28.055 70.5286C28.0408 69.8205 26.3154 70.3634 25.4291 71.0007C24.3118 71.7914 24.2883 72.5963 24.4627 72.7638C24.689 72.9857 25.316 72.7072 25.4574 72.6529Z" fill="#F47356"/>
<path d="M21.2283 80.8788C20.9806 82.6601 20.6001 84.4203 20.0898 86.1447C20.0797 86.1754 20.0587 86.2013 20.0308 86.2176C20.0028 86.2338 19.97 86.2392 19.9383 86.2328C19.9067 86.2265 19.8785 86.2087 19.859 86.1829C19.8396 86.1571 19.8303 86.125 19.8329 86.0928C20.0686 84.4712 20.5141 82.878 20.7545 81.2541C21.0171 79.6118 21.1118 77.947 21.0374 76.2855C20.8818 73.5522 20.1393 70.6419 18.3573 68.4964C18.3196 68.4468 18.4021 68.3736 18.4421 68.4208C22.0109 72.5916 21.4499 77.7017 21.4499 78.1573C21.9543 76.4342 22.4752 74.4563 24.3845 72.7002C24.467 72.6246 24.533 72.66 24.5189 72.7898C24.1771 75.9881 23.2884 77.6593 21.4357 79.3682C21.3744 79.8756 21.3084 80.3807 21.2283 80.8788Z" fill="#263238"/>
<path d="M18.3269 68.9802C17.6834 68.6946 16.7994 69.5136 16.163 69.5703C16.091 69.5871 16.0164 69.5885 15.9438 69.5746C15.8712 69.5606 15.8024 69.5316 15.7417 69.4893C15.6811 69.447 15.6299 69.3925 15.5917 69.3292C15.5534 69.2659 15.5288 69.1952 15.5195 69.1218C15.3616 68.2036 16.4388 67.6867 17.2968 67.5215C16.757 67.4885 16.2243 67.6324 15.6963 67.4908C15.6243 67.4811 15.5552 67.4559 15.4937 67.4171C15.4323 67.3783 15.3799 67.3267 15.3401 67.2658C15.3003 67.2049 15.274 67.1361 15.2631 67.0642C15.2522 66.9922 15.2568 66.9188 15.2767 66.8488C15.5124 65.815 16.8772 65.9684 17.6857 66.3366C17.4288 65.8787 16.6745 64.6065 17.45 64.5333C18.2255 64.4601 19.0175 66.1407 19.2744 66.693C19.6539 67.5026 20.0311 68.6238 19.6728 69.431C19.2509 70.3728 18.7182 69.4121 18.3269 68.9802Z" fill="#F47356"/>
<path opacity="0.1" d="M18.3269 68.9802C17.6834 68.6946 16.7994 69.5136 16.163 69.5703C16.091 69.5871 16.0164 69.5885 15.9438 69.5746C15.8712 69.5606 15.8024 69.5316 15.7417 69.4893C15.6811 69.447 15.6299 69.3925 15.5917 69.3292C15.5534 69.2659 15.5288 69.1952 15.5195 69.1218C15.3616 68.2036 16.4388 67.6867 17.2968 67.5215C16.757 67.4885 16.2243 67.6324 15.6963 67.4908C15.6243 67.4811 15.5552 67.4559 15.4937 67.4171C15.4323 67.3783 15.3799 67.3267 15.3401 67.2658C15.3003 67.2049 15.274 67.1361 15.2631 67.0642C15.2522 66.9922 15.2568 66.9188 15.2767 66.8488C15.5124 65.815 16.8772 65.9684 17.6857 66.3366C17.4288 65.8787 16.6745 64.6065 17.45 64.5333C18.2255 64.4601 19.0175 66.1407 19.2744 66.693C19.6539 67.5026 20.0311 68.6238 19.6728 69.431C19.2509 70.3728 18.7182 69.4121 18.3269 68.9802Z" fill="black"/>
<path d="M18.4321 69.2257C17.8028 68.4657 15.9948 68.2414 16.0113 67.8708C16.0467 67.1179 17.494 67.2926 18.2011 67.5357C17.6661 67.0636 16.6148 66.2304 16.9401 65.6474C17.3361 64.9393 18.7998 66.4263 19.3608 67.5357C20.068 68.9519 19.6578 69.7804 19.3891 69.8559C19.0238 69.9763 18.5358 69.3508 18.4321 69.2257Z" fill="#F47356"/>
<path d="M23.571 81.8442L25.1456 93.882H15.5732C15.7712 92.8151 17.5532 81.8276 17.5532 81.8276L23.571 81.8442Z" fill="#F47356"/>
<path d="M76.3926 66.5018C76.3926 66.5018 76.3926 66.523 76.3761 66.5608C76.3596 66.5986 76.362 66.6222 76.3502 66.6647C76.3007 66.8629 76.2041 67.2382 76.0697 67.7693C75.7751 68.9282 75.2919 70.8378 74.679 73.2359C74.6106 73.4955 74.5446 73.7622 74.4739 74.0337C74.4456 74.1588 74.4103 74.2839 74.3796 74.409C73.4179 78.1856 72.2063 82.9605 70.9335 87.9645C70.9123 88.0542 70.8887 88.1439 70.8651 88.2336C70.7049 88.8614 70.5469 89.4893 70.3937 90.1219L70.3772 90.1903L70.3607 90.2611C70.0543 91.4649 69.7478 92.6758 69.4391 93.8843H51.2891C52.0551 91.1415 52.833 88.3799 53.5873 85.7222C54.8366 81.3012 56.0151 77.1659 56.958 73.8708C58.0093 70.2028 58.7683 67.5781 59.0016 66.7662C59.0488 66.5962 59.0747 66.5089 59.0747 66.5089L76.3926 66.5018Z" fill="#F7A9A0"/>
<path d="M70.3514 90.2588C70.3514 90.2588 52.8756 85.6348 52.5503 85.3846C52.225 85.1344 59.0725 66.5537 59.0725 66.5537H76.3928L70.3514 90.2588Z" fill="#263238"/>
<path d="M70.5049 86.9802C65.305 85.2595 60.0345 83.7371 54.712 82.4578C54.7002 82.4567 54.6884 82.4596 54.6785 82.4662C54.6686 82.4727 54.6613 82.4825 54.6577 82.4938C54.6541 82.5051 54.6545 82.5173 54.6588 82.5284C54.6631 82.5394 54.6711 82.5487 54.6814 82.5546C59.8671 84.2918 65.1518 85.7953 70.4743 87.0935C70.4886 87.0958 70.5034 87.0928 70.5156 87.0848C70.5279 87.0769 70.5367 87.0648 70.5405 87.0507C70.5443 87.0366 70.5428 87.0216 70.5362 87.0086C70.5296 86.9956 70.5185 86.9855 70.5049 86.9802Z" fill="#455A64"/>
<path d="M85.3596 93.8819H67.9828C67.9285 92.5082 67.879 91.2336 67.8366 90.1053C67.8366 90.0794 67.8366 90.0534 67.8366 90.0298C67.8366 89.8764 67.8366 89.7253 67.8178 89.5766C67.8178 89.494 67.8178 89.4138 67.8178 89.3406C67.8178 89.2674 67.8178 89.1258 67.8036 89.0196C67.7895 88.9134 67.8036 88.7647 67.7895 88.6419C67.7753 88.5192 67.7777 88.3303 67.773 88.1816C67.773 87.9314 67.7518 87.6978 67.7447 87.4735C67.7447 87.3791 67.7447 87.2894 67.7447 87.1997C67.7447 87.11 67.7447 87.0156 67.7329 86.9283C67.7329 86.9047 67.7329 86.8811 67.7329 86.8575C67.7329 86.6899 67.7211 86.5318 67.714 86.3854C67.707 86.2391 67.714 86.1494 67.7023 86.0597C67.706 85.9913 67.706 85.9227 67.7023 85.8543V85.8567C67.6905 85.5829 67.6858 85.4366 67.6858 85.4366L67.6504 85.4153C67.5467 85.3516 67.443 85.2902 67.3416 85.2336C67.3416 85.2336 67.3416 85.2336 67.3275 85.2336L67.1318 85.1179L67.0328 85.0589L66.6934 84.8677C66.4883 84.7521 66.288 84.6435 66.0947 84.5396L65.6233 84.2847L65.1801 84.0487L64.7676 83.8433L64.3858 83.6616C64.3127 83.6238 64.2396 83.5908 64.1713 83.5601L63.985 83.4727C63.5136 83.2627 63.1671 83.1187 62.9455 83.0337C62.7758 82.9676 62.6815 82.9346 62.6698 82.9275C62.6273 82.8118 62.5873 82.6915 62.5448 82.5734C62.4081 82.1722 62.2761 81.7591 62.1535 81.3437C61.7858 80.1163 61.4653 78.8276 61.1918 77.5412C61.0999 77.1139 61.015 76.6867 60.9302 76.2619C60.7817 75.4877 60.6497 74.7229 60.5318 73.9865C59.9284 70.2099 59.7068 67.0636 59.6738 66.5679C59.6738 66.5396 59.6738 66.5183 59.6738 66.5089H76.5958H83.2311C83.2311 66.5089 83.2971 67.3397 83.415 68.7984C83.415 68.9471 83.4385 69.1006 83.448 69.2705C83.5187 70.1297 83.5988 71.1588 83.6837 72.339C83.6955 72.5018 83.7096 72.6647 83.7214 72.8323C83.7685 73.4287 83.8188 74.0581 83.8723 74.7206C83.9029 75.1076 83.9335 75.5065 83.9642 75.9149C83.9783 76.066 83.9878 76.2147 84.0019 76.3681C84.071 77.2619 84.1433 78.1958 84.2188 79.1698C84.4168 81.7261 84.6336 84.5184 84.8575 87.4051C84.8575 87.4476 84.8575 87.4924 84.8575 87.5373C84.9141 88.2784 84.9707 89.0227 85.0273 89.7702C85.1498 91.125 85.2559 92.5058 85.3596 93.8819Z" fill="#F7A9A0"/>
<path d="M68.1217 92.2155C68.1107 91.6553 68.0903 91.0967 68.0605 90.5396C68.0015 89.4114 67.9355 88.2855 67.8365 87.1596C67.78 86.5247 67.747 85.885 67.6668 85.2501C67.6668 85.2426 67.6638 85.2354 67.6585 85.23C67.6532 85.2247 67.646 85.2217 67.6385 85.2217C67.631 85.2217 67.6238 85.2247 67.6185 85.23C67.6132 85.2354 67.6102 85.2426 67.6102 85.2501C67.5961 85.8095 67.6102 86.3689 67.6291 86.9283C67.648 87.4877 67.6291 88.0447 67.655 88.6041C67.6927 89.73 67.7517 90.8606 67.8342 91.9842C67.8577 92.2981 67.8884 92.612 67.9167 92.9283C67.9293 93.2374 67.9744 93.5444 68.051 93.8441C68.0524 93.8477 68.0548 93.8508 68.0579 93.853C68.0611 93.8552 68.0649 93.8564 68.0687 93.8564C68.0726 93.8564 68.0763 93.8552 68.0795 93.853C68.0826 93.8508 68.085 93.8477 68.0864 93.8441C68.1262 93.5794 68.1411 93.3115 68.1312 93.044C68.1217 92.7654 68.1217 92.4893 68.1217 92.2155Z" fill="#263238"/>
<path d="M59.6357 66.5018C59.6357 66.5018 60.1378 74.7961 62.1202 81.3437C62.2757 81.8866 62.4478 82.42 62.6317 82.9275C62.6317 82.9275 64.6187 83.6214 67.6595 85.4342C67.6595 85.4342 67.7325 87.2871 67.8386 90.1219C72.8923 90.3768 84.6898 90.0109 86.1512 89.6026C85.2296 77.5955 83.2331 66.5018 83.2331 66.5018H59.6357Z" fill="#263238"/>
<path d="M69.8399 86.3288C69.0456 85.7765 68.1899 85.3138 67.3461 84.837C66.5022 84.3602 65.6089 83.8929 64.7131 83.4633C62.9453 82.6826 61.1269 82.0217 59.2705 81.4853C59.2234 81.4712 59.1927 81.5467 59.2399 81.5656C61.0124 82.3303 62.7331 83.2037 64.4986 83.9897C65.3873 84.3838 66.2806 84.7615 67.1693 85.1533C68.0579 85.5451 68.9253 85.9889 69.8211 86.3642C69.8254 86.3649 69.8299 86.3642 69.8338 86.3622C69.8378 86.3602 69.841 86.3571 69.8431 86.3532C69.8451 86.3493 69.8459 86.3449 69.8454 86.3405C69.8448 86.3361 69.8429 86.332 69.8399 86.3288Z" fill="#455A64"/>
<path d="M64.9863 77.638C64.9627 76.767 64.9014 75.896 64.859 75.0274C64.7576 72.9715 64.6775 70.9039 64.4865 68.8551C64.4865 68.8382 64.4798 68.822 64.4679 68.81C64.456 68.7981 64.4398 68.7914 64.4229 68.7914C64.406 68.7914 64.3898 68.7981 64.3779 68.81C64.366 68.822 64.3593 68.8382 64.3593 68.8551C64.3333 70.4436 64.3946 72.0392 64.4276 73.6277C64.4441 74.4232 64.4677 75.2186 64.4889 76.014C64.5325 76.7733 64.5372 77.5344 64.5031 78.2941C64.4606 78.8677 64.3357 79.9794 63.5885 80.0502C62.8813 80.114 62.4995 79.3539 62.3227 78.7969C61.8772 77.3807 61.7193 75.8535 61.5755 74.3807C61.4883 73.5097 61.4034 72.6411 61.3398 71.7654C61.2601 70.8724 61.231 69.9756 61.2525 69.0793C61.2525 69.0227 61.1677 69.0274 61.1653 69.0793C61.1158 69.9786 60.9933 70.8708 60.9626 71.7725C60.932 72.6741 60.9296 73.5687 60.9885 74.4609C61.0475 75.3531 61.1158 76.184 61.2455 77.0337C61.3317 77.8119 61.517 78.5757 61.7971 79.3067C62.0563 79.9086 62.5042 80.4633 63.176 80.5955C63.2583 80.612 63.3419 80.6207 63.4258 80.6214C63.4258 80.8055 63.4588 80.992 63.473 81.1738C63.4942 81.4617 63.5296 81.7497 63.5673 82.0353C63.6076 82.3167 63.6667 82.595 63.7441 82.8685C63.8046 83.1458 63.903 83.4134 64.0363 83.6639C64.0408 83.6729 64.0482 83.6799 64.0574 83.6839C64.0665 83.6879 64.0767 83.6885 64.0863 83.6857C64.0958 83.6829 64.1041 83.6768 64.1096 83.6685C64.1151 83.6602 64.1176 83.6502 64.1165 83.6403C64.1232 83.3649 64.1003 83.0895 64.0481 82.8189C64.0104 82.538 63.9703 82.2548 63.9138 81.9786C63.8572 81.7025 63.8053 81.4334 63.7511 81.162C63.7134 80.9802 63.6875 80.7914 63.6521 80.6073C63.8704 80.5695 64.0759 80.4778 64.25 80.3406C64.424 80.2034 64.5612 80.0249 64.6492 79.8213C64.9792 79.158 65.0028 78.3673 64.9863 77.638Z" fill="#455A64"/>
<path d="M67.6874 85.2501C67.6874 85.2413 67.684 85.2329 67.6778 85.2267C67.6716 85.2205 67.6632 85.217 67.6544 85.217C67.6457 85.217 67.6373 85.2205 67.6311 85.2267C67.6249 85.2329 67.6214 85.2413 67.6214 85.2501C67.6002 85.6513 67.6049 89.2485 67.7582 90.018C67.7613 90.0274 67.7673 90.0357 67.7753 90.0415C67.7833 90.0473 67.793 90.0505 67.8029 90.0505C67.8129 90.0505 67.8225 90.0473 67.8306 90.0415C67.8386 90.0357 67.8446 90.0274 67.8477 90.018C67.9656 89.2438 67.7417 85.649 67.6874 85.2501Z" fill="#455A64"/>
<path d="M85.0929 87.3862C79.6173 87.4193 74.1369 87.6624 68.6825 88.1533C68.6709 88.1559 68.6605 88.1623 68.6531 88.1715C68.6457 88.1807 68.6416 88.1922 68.6416 88.2041C68.6416 88.216 68.6457 88.2275 68.6531 88.2367C68.6605 88.2459 68.6709 88.2523 68.6825 88.2548C74.151 88.2407 79.6314 87.981 85.0929 87.509C85.1091 87.509 85.1247 87.5025 85.1362 87.491C85.1477 87.4795 85.1542 87.4639 85.1542 87.4476C85.1542 87.4313 85.1477 87.4157 85.1362 87.4042C85.1247 87.3927 85.1091 87.3862 85.0929 87.3862Z" fill="#455A64"/>
<path d="M83.8226 77.1352C82.578 77.2225 81.3476 77.383 80.0983 77.2343C78.9224 77.114 77.8016 76.6741 76.8573 75.9621C74.8042 74.3665 73.9038 71.7583 73.3475 69.3106C73.3442 69.3007 73.3375 69.2923 73.3287 69.2867C73.3198 69.2812 73.3093 69.2789 73.299 69.2803C73.2886 69.2817 73.2791 69.2867 73.2721 69.2944C73.265 69.3021 73.2608 69.312 73.2603 69.3224C73.496 71.4467 73.9485 73.6419 75.318 75.3508C75.9071 76.102 76.6518 76.7164 77.5008 77.1517C78.4012 77.5703 79.3864 77.7739 80.3788 77.7465C81.5459 77.735 82.7069 77.5764 83.8344 77.2744C83.8489 77.2686 83.861 77.2582 83.8692 77.2449C83.8774 77.2316 83.881 77.216 83.8797 77.2005C83.8784 77.1849 83.8722 77.1702 83.8619 77.1584C83.8516 77.1467 83.8378 77.1385 83.8226 77.1352Z" fill="#455A64"/>
<path d="M56.6284 19.6629C57.8447 18.8958 62.4623 17.0949 66.1984 16.441C68.0087 16.1224 73.3099 15.766 73.6588 17.1492C74.0076 18.5323 72.4684 18.766 72.4684 18.766C72.4684 18.766 74.7313 18.9501 74.9576 20.364C75.1838 21.7778 72.7748 22.0776 72.7748 22.0776C72.7748 22.0776 75.0849 22.4363 75.2098 23.8644C75.3347 25.2924 72.8526 25.1862 72.8526 25.1862C72.8526 25.1862 74.9741 25.4222 74.5875 26.6354C74.1161 28.1012 70.2433 27.2349 68.2562 27.6881C67.806 27.7896 59.2637 30.4167 59.2637 30.4167L56.6284 19.6629Z" fill="#F7A9A0"/>
<path d="M72.8359 25.1956C69.9861 24.5654 68.6308 24.7849 65.9271 25.7574C65.8753 25.7786 65.8328 25.7031 65.887 25.6771C68.4469 24.4828 70.1087 23.9635 72.8736 25.0587C73.0009 25.1177 72.9632 25.231 72.8359 25.1956Z" fill="#263238"/>
<path d="M72.897 22.0563C69.8798 21.6597 68.4066 21.884 65.5026 22.6959C65.4602 22.7077 65.4366 22.6393 65.4767 22.6228C68.2605 21.5889 69.9293 21.1074 72.8922 21.9005C73.0266 21.9359 73.0337 22.0752 72.897 22.0563Z" fill="#263238"/>
<path d="M72.218 18.7354C69.2716 18.5631 67.6452 18.7354 64.925 19.8896C64.9126 19.8938 64.899 19.8933 64.8868 19.8882C64.8747 19.8831 64.8648 19.8738 64.859 19.8619C64.8532 19.8501 64.852 19.8365 64.8554 19.8238C64.8589 19.8111 64.8669 19.8001 64.8779 19.7928C67.5367 18.3483 69.5639 18.1146 72.2133 18.6457C72.3948 18.6811 72.4042 18.7472 72.218 18.7354Z" fill="#263238"/>
<path d="M57.6111 31.663C57.6111 31.663 61.2293 32.1917 62.8699 32.0737C64.5105 31.9557 70.4623 29.2578 69.9413 27.936C69.286 26.2318 65.5429 27.1123 63.7656 27.7826C63.7656 27.7826 62.25 23.8361 59.4285 23.8857C56.607 23.9352 57.6111 31.663 57.6111 31.663Z" fill="#F7A9A0"/>
<path d="M69.6185 27.5277C67.9001 26.4065 65.6255 27.4356 63.8529 27.9573C63.8272 27.9665 63.7997 27.9693 63.7726 27.9655C63.7456 27.9616 63.72 27.9512 63.6979 27.9352C63.6758 27.9191 63.658 27.8979 63.646 27.8734C63.634 27.8488 63.6281 27.8217 63.629 27.7944C62.8841 26.1823 61.3637 24.1288 59.5205 23.8031C59.5092 23.8031 59.4984 23.7986 59.4905 23.7906C59.4825 23.7826 59.478 23.7718 59.478 23.7606C59.478 23.7493 59.4825 23.7385 59.4905 23.7305C59.4984 23.7226 59.5092 23.7181 59.5205 23.7181C61.5452 23.7983 63.2023 25.6937 63.9071 27.5112C65.715 26.947 68.0439 26.0147 69.6232 27.5112C69.6397 27.5206 69.6302 27.5348 69.6185 27.5277Z" fill="#263238"/>
<path d="M58.2217 49.8094C58.4739 49.8235 59.6524 49.8943 61.3732 50.0029C62.0167 48.9266 62.7874 47.0053 62.5965 44.2389C62.5588 43.781 63.5394 46.4411 62.9737 50.102C66.3019 50.3074 70.83 50.5741 74.7853 50.7842C74.9197 49.2405 75.1129 47.8149 75.1129 47.8149C75.1996 48.8344 75.3779 49.844 75.6457 50.8314C76.1854 50.8644 76.7158 50.8857 77.2249 50.9117C77.199 48.5041 77.7647 44.3333 77.7647 44.3333C77.9661 46.6385 78.5434 48.895 79.4737 51.0131C81.9864 51.117 83.6434 51.1382 83.5421 51.0131C79.9003 46.5049 82.7784 44.095 81.8402 40.2098C80.7159 35.5552 76.7771 34.6771 77.0222 31.2216C77.2155 28.4104 77.7553 23.3144 74.2455 22.0917C74.2455 22.0917 71.4759 18.8156 66.8724 20.3899C61.1822 22.3325 63.0797 31.0965 62.6295 32.8479C61.9907 35.3498 60.7579 36.1948 59.7562 39.0391C58.7544 41.8833 59.9919 43.8967 60.0626 45.8841C60.1333 47.8715 57.5876 49.781 58.2217 49.8094Z" fill="#263238"/>
<path d="M83.6785 50.3948C83.186 49.6158 82.8059 48.7711 82.5494 47.8857C82.2948 47.0171 82.4528 46.1414 82.6578 45.2421C82.8951 44.3314 83.0839 43.4088 83.2235 42.4781C83.3621 41.5074 83.3052 40.5186 83.0562 39.5702C82.7847 38.6223 82.301 37.7489 81.6419 37.0163C80.9997 36.32 80.3004 35.6789 79.5511 35.0997C78.844 34.5049 78.1368 33.9195 77.623 33.1736C77.0879 32.4243 76.7676 31.5428 76.6966 30.6245C76.6219 31.5764 76.8373 32.5286 77.3142 33.3554C77.8189 34.1638 78.4418 34.8918 79.1622 35.5151C79.8492 36.1193 80.4964 36.7674 81.0998 37.4553C81.6711 38.1276 82.0901 38.916 82.3278 39.7661C82.5444 40.6257 82.6011 41.5178 82.4952 42.3979C82.4103 43.2972 82.2076 44.1965 82.052 45.1265C81.968 45.5989 81.9199 46.0771 81.9083 46.5568C81.9097 47.0495 81.9991 47.5379 82.1723 47.999C82.5272 48.8814 83.0374 49.6928 83.6785 50.3948Z" fill="#263238"/>
<path d="M63.5751 23.5032C63.1036 24.5536 62.8939 25.7054 62.6864 26.8337C62.479 27.9619 62.3729 29.1114 62.2551 30.2515L62.0689 31.9509C62.0162 32.4996 61.9104 33.0419 61.753 33.5701C61.4348 34.6134 60.8101 35.5104 60.103 36.4214C59.7475 36.889 59.4231 37.3794 59.1319 37.8896C58.8422 38.4132 58.6113 38.9673 58.4436 39.5418C58.2971 40.1156 58.1931 40.6994 58.1324 41.2885C58.0707 41.8816 58.081 42.48 58.1631 43.0706C58.2432 43.6607 58.3988 44.2224 58.5049 44.77C58.6242 45.3131 58.6921 45.8664 58.7076 46.4223C58.75 47.5222 58.1324 48.5938 57.2202 49.2759C57.7369 48.9927 58.1756 48.5858 58.4972 48.0916C58.8188 47.5974 59.0134 47.0312 59.0635 46.4435C59.0951 45.8569 59.0674 45.2685 58.981 44.6874C58.9032 44.1091 58.7783 43.5544 58.7453 43.0068C58.674 41.9038 58.8034 40.7969 59.1271 39.7401C59.2906 39.2197 59.507 38.7174 59.773 38.2413C60.0553 37.7599 60.3704 37.2986 60.7159 36.8605C61.0506 36.4002 61.4018 35.9305 61.7059 35.4159C62.0162 34.8979 62.2602 34.3428 62.4319 33.7637C62.5856 33.1891 62.6835 32.601 62.7241 32.0076C62.7784 31.4317 62.809 30.8581 62.8396 30.2869C62.9056 29.1421 62.9575 28.0021 63.0541 26.8667C63.1116 25.7306 63.2861 24.6034 63.5751 23.5032Z" fill="#263238"/>
<path d="M66.9735 45.2728C63.1714 45.7307 43.2017 43.3916 41.25 36.8439C39.2983 30.2963 50.5159 22.637 57.4954 19.2074C58.8437 18.5441 61.5945 29.1917 59.5249 30.8628C57.4907 32.515 53.9173 34.2239 54.2496 34.4836C54.582 34.7432 62.2286 37.7055 68.3006 41.043C71.8316 42.9856 69.894 44.9281 66.9735 45.2728Z" fill="#F7A9A0"/>
<path d="M54.7661 45.4238L57.2623 35.7747C57.2623 35.7747 64.4469 38.5434 68.3951 40.6913C72.3433 42.8393 72.8548 45.0627 66.2973 45.438C62.4568 45.6676 58.606 45.6628 54.7661 45.4238Z" fill="#37474F"/>
<path d="M57.4062 44.8998C57.7566 43.6001 58.0709 42.2901 58.349 40.9699C58.4881 40.3208 58.639 39.674 58.7662 39.0202C58.8935 38.3664 58.9854 37.6654 59.1174 36.9903C59.1174 36.9431 59.0562 36.9218 59.0444 36.9714C58.8935 37.6158 58.6955 38.2507 58.54 38.8951C58.3844 39.5395 58.2453 40.2334 58.0992 40.9014C57.8116 42.2216 57.557 43.5489 57.3354 44.8833C57.3425 44.9211 57.3967 44.9376 57.4062 44.8998Z" fill="#263238"/>
<path d="M55.6499 73.8189L57.3258 70.6395L59.2375 60.0321C59.2375 60.0321 56.5715 55.4081 58.1225 52.0683C58.9004 50.3806 64.937 42.1335 67.8104 40.047C70.5046 38.0879 74.4104 40.1839 75.8718 41.7181C81.4818 47.619 83.054 58.7551 85.0647 74.7442L55.6499 73.8189Z" fill="#455A64"/>
<path d="M71.721 52.663C71.4942 52.9974 71.2412 53.3131 70.9643 53.6072C69.7858 54.8558 68.388 55.5851 68.0391 55.6111L68.8405 54.3979L68.0132 53.9423C68.76 53.5975 69.4499 53.1406 70.0592 52.5875C70.3474 52.3231 70.6095 52.0314 70.8418 51.7165C71.0991 52.0635 71.3939 52.381 71.721 52.663Z" fill="#F47356"/>
<path d="M70.8417 51.7071C70.6094 52.022 70.3474 52.3137 70.0591 52.5781C69.4392 51.7567 68.9795 50.8054 68.956 49.7693C68.9324 48.7755 69.385 47.7606 70.4362 47.56C70.0685 47.9305 70.0002 48.7401 70.0002 48.7401C69.8789 49.8016 70.1814 50.868 70.8417 51.7071Z" fill="#F47356"/>
<path d="M72.711 49.6843C72.6914 50.7549 72.346 51.7941 71.721 52.663C71.3934 52.378 71.0986 52.0574 70.8418 51.7071C71.1556 51.2939 71.3841 50.8223 71.514 50.3198C71.6439 49.8173 71.6726 49.294 71.5984 48.7802C71.5984 47.9541 71.2425 47.5859 71.2213 47.5647C72.2207 47.7865 72.711 48.8322 72.711 49.6843Z" fill="#F47356"/>
<path d="M72.8784 54.346L73.6444 55.5497C72.6069 55.1265 71.6739 54.4822 70.9102 53.6615C71.2046 53.3516 71.4757 53.0203 71.721 52.6701C72.2923 53.1646 72.9264 53.5812 73.6067 53.9093L72.8784 54.346Z" fill="#F47356"/>
<path d="M71.5981 48.7803C71.518 48.2445 70.0613 48.3271 70 48.7401C70 48.7401 70.0684 47.9305 70.4361 47.56C70.565 47.5349 70.696 47.5223 70.8274 47.5222C70.9597 47.5226 71.0916 47.5368 71.221 47.5647C71.2422 47.5859 71.5981 47.9541 71.5981 48.7803Z" fill="#F47356"/>
<path d="M72.3503 41.567C72.4634 44.1823 81.9533 67.3727 81.9297 68.3263C81.9297 68.3263 92.9211 74.5742 94.2222 68.4679C95.5233 62.3617 83.3181 50.1776 78.1347 44.1185C76.018 41.6449 72.2136 38.3781 72.3503 41.567Z" fill="#F7A9A0"/>
<path d="M85.3686 51.3152L75.9871 53.6213C75.9871 53.6213 72.9794 46.6087 72.31 43.198C71.6689 39.9313 72.9252 37.9863 77.1492 42.2538C82.3538 47.5009 85.3686 51.3152 85.3686 51.3152Z" fill="#37474F"/>
<path d="M83.1129 49.8542C82.4828 49.9243 81.8577 50.0339 81.2414 50.1823C80.6238 50.3098 80.0062 50.449 79.3934 50.5883C78.7805 50.7276 78.1511 50.8739 77.5359 51.0297C76.9207 51.1855 76.2843 51.3861 75.6502 51.5631C75.6149 51.5631 75.629 51.6339 75.6667 51.6269C76.289 51.5159 76.916 51.4239 77.5383 51.2964C78.1606 51.1689 78.7711 51.0273 79.3886 50.8857C80.0062 50.7441 80.6285 50.6001 81.2437 50.4443C81.8829 50.3057 82.5128 50.1268 83.1294 49.9085C83.1366 49.9063 83.1426 49.9014 83.1462 49.8947C83.1497 49.8881 83.1505 49.8803 83.1483 49.8731C83.1461 49.8659 83.1411 49.8599 83.1345 49.8563C83.1279 49.8528 83.1201 49.852 83.1129 49.8542Z" fill="#263238"/>
<path d="M72.1521 71.7323C67.5156 70.3468 62.7236 68.2083 59.6593 64.1934C59.3061 63.7568 59.1102 63.2138 59.103 62.6521C57.6887 60.8771 58.1083 59.678 58.1083 59.678C57.2998 57.6221 57.8914 56.4538 57.8914 56.4538C57.8914 56.4538 56.2579 54.3507 57.3634 53.1493C58.5986 51.8015 60.6493 55.0163 62.8579 56.095C67.9163 58.5639 75.7963 60.6552 77.3261 61.2217L72.1521 71.7323Z" fill="#F7A9A0"/>
<path d="M66.3393 62.4137C64.866 61.6583 63.3975 60.955 62.0328 60.0014C60.536 58.9581 59.2702 57.7 57.9502 56.4608C57.9463 56.4567 57.9417 56.4533 57.9365 56.4509C57.9313 56.4485 57.9257 56.4472 57.92 56.447C57.9143 56.4467 57.9087 56.4476 57.9033 56.4496C57.898 56.4516 57.8931 56.4546 57.8889 56.4585C57.8847 56.4624 57.8813 56.467 57.879 56.4722C57.8766 56.4774 57.8753 56.483 57.875 56.4887C57.8748 56.4944 57.8757 56.5001 57.8777 56.5054C57.8797 56.5108 57.8827 56.5157 57.8865 56.5199C59.9184 59.1493 63.1713 61.3845 66.3063 62.4892C66.3817 62.5081 66.4147 62.4514 66.3393 62.4137Z" fill="#263238"/>
<path d="M65.2935 65.6874C63.9005 64.8731 61.4608 63.4239 58.1443 59.6402C58.1325 59.6284 58.109 59.6402 58.1184 59.6591C59.9452 62.4018 62.3094 64.3468 65.2558 65.7535C65.3501 65.7937 65.3902 65.7417 65.2935 65.6874Z" fill="#263238"/>
<path d="M64.7011 67.446C62.3841 65.9707 61.1112 64.7457 59.1171 62.6615C59.1171 62.6497 59.0841 62.6615 59.0935 62.6804C61.1112 65.2768 62.1366 66.0038 64.6634 67.5333C64.7483 67.5758 64.7931 67.4955 64.7011 67.446Z" fill="#263238"/>
<path d="M69.1369 58.6843C69.9242 58.7457 69.9595 58.3326 68.9271 57.3837C67.8947 56.4349 63.0059 53.5552 64.1539 51.9337C65.3018 50.3121 72.1399 54.4711 73.738 56.1823C75.3362 57.8936 77.3138 61.224 77.3138 61.224C75.8288 60.6812 72.0809 59.711 69.1369 58.6843Z" fill="#F7A9A0"/>
<path d="M77.3148 61.224C75.8699 61.5238 70.0407 71.1894 72.1432 71.7323C82.0432 74.2815 90.529 71.7937 92.2874 70.8023C94.595 69.5041 94.6563 66.1949 93.605 64.8165C92.0894 62.8173 78.755 60.9266 77.3148 61.224Z" fill="#F7A9A0"/>
<path d="M88.7845 62.8078C83.719 61.0281 77.3783 61.1202 77.3665 61.1178C77.2651 61.0989 77.1308 61.2736 77.1897 61.283C78.2268 61.4719 84.9141 62.01 88.7232 62.9353C88.7586 62.9471 88.8198 62.8196 88.7845 62.8078Z" fill="#263238"/>
<path d="M72.5085 40.0918C72.4024 40.5639 69.5432 46.571 66.453 46.0777C64.9774 45.8416 67.4218 39.6669 67.4218 39.6669L66.4789 35.5033L71.6953 32.1752C71.6953 32.1752 72.5509 39.8959 72.5085 40.0918Z" fill="#F7A9A0"/>
<path d="M71.994 34.8872C71.5756 35.9227 70.9489 36.8608 70.1529 37.6433C69.3568 38.4258 68.4085 39.0359 67.3669 39.4356L66.4712 35.5033L71.6875 32.1752L71.994 34.8872Z" fill="#263238"/>
<path d="M61.1964 28.8754C60.0178 35.77 64.025 37.2499 65.5005 37.5025C66.8488 37.7385 71.4688 38.3381 73.3451 31.6016C75.2214 24.8652 72.4022 22.139 69.338 21.4521C66.2737 20.7652 62.3702 21.9808 61.1964 28.8754Z" fill="#F7A9A0"/>
<path d="M62.1694 25.5213C61.9596 26.0595 61.7545 26.6 61.5848 27.1523C61.4286 27.6869 61.3066 28.2309 61.2195 28.781C61.1223 29.3192 61.0523 29.862 61.0097 30.4073C60.9659 30.9799 60.962 31.5548 60.9979 32.128C60.9979 32.133 60.9999 32.1378 61.0034 32.1413C61.007 32.1449 61.0117 32.1468 61.0167 32.1468C61.0217 32.1468 61.0265 32.1449 61.0301 32.1413C61.0336 32.1378 61.0356 32.133 61.0356 32.128C61.0356 31.8376 61.1582 30.7117 61.1865 30.4568C61.243 29.8951 61.3232 29.3309 61.4222 28.7739C61.5212 28.2169 61.6579 27.6834 61.771 27.1405C61.8842 26.5977 62.0232 26.0571 62.1953 25.5284C62.1963 25.525 62.1958 25.5213 62.194 25.5182C62.1923 25.5151 62.1893 25.5128 62.1859 25.5119C62.1825 25.5109 62.1788 25.5114 62.1757 25.5132C62.1726 25.515 62.1703 25.5179 62.1694 25.5213Z" fill="#263238"/>
<path d="M73.2812 31.0964C71.6194 30.9761 71.8504 28.3584 71.8504 28.3584C71.8504 28.3584 69.9812 28.0303 70.0943 24.9784C70.0943 24.9784 69.0383 26.7392 66.4572 26.9021C65.9104 26.9375 67.8362 25.6865 67.8362 25.6865C67.8362 25.6865 65.505 27.4709 61.5426 26.3946C61.2645 26.3191 62.2215 22.1177 65.4979 20.9304C68.7743 19.7431 71.551 20.7982 73.3401 22.9556C73.8734 23.2946 74.3149 23.7603 74.6254 24.3112C74.9358 24.8622 75.1056 25.4813 75.1197 26.1137C75.1928 28.3301 73.9247 31.1507 73.2812 31.0964Z" fill="#263238"/>
<path d="M72.1689 31.4624C72.1689 31.4624 73.866 29.4112 74.8089 30.0461C75.7517 30.6811 74.3374 33.7283 73.1589 34.0587C73.0089 34.1127 72.8496 34.1358 72.6906 34.1264C72.5315 34.117 72.3761 34.0754 72.2335 34.0041C72.091 33.9329 71.9643 33.8334 71.8612 33.7118C71.7582 33.5901 71.6808 33.4488 71.6338 33.2964L72.1689 31.4624Z" fill="#F7A9A0"/>
<path d="M74.3846 30.903C74.3877 30.9042 74.3903 30.9063 74.3922 30.909C74.394 30.9118 74.395 30.915 74.395 30.9183C74.395 30.9216 74.394 30.9248 74.3922 30.9276C74.3903 30.9303 74.3877 30.9324 74.3846 30.9336C73.5455 31.1956 73.0552 31.9155 72.6922 32.6709C72.9586 32.39 73.3003 32.2531 73.6798 32.5741C73.6987 32.5906 73.6799 32.6213 73.6539 32.6166C73.5151 32.5591 73.3618 32.5461 73.2153 32.5795C73.0688 32.6129 72.9363 32.691 72.836 32.803C72.6699 32.9915 72.5245 33.1972 72.4023 33.4167C72.3575 33.4852 72.2302 33.4356 72.2632 33.3554C72.2632 33.3554 72.2632 33.3554 72.2632 33.3365C72.341 32.2979 73.265 30.9148 74.3846 30.903Z" fill="#263238"/>
<path d="M63.346 27.8382C63.5039 27.8296 63.6612 27.8131 63.8174 27.7887C63.9863 27.7925 64.1517 27.7412 64.2889 27.6426C64.3267 27.6028 64.3503 27.5516 64.3558 27.497C64.3614 27.4423 64.3486 27.3874 64.3195 27.3409C64.2485 27.2572 64.1564 27.1941 64.0528 27.1581C63.9492 27.122 63.8378 27.1143 63.7302 27.1358C63.5057 27.1461 63.2927 27.2384 63.1315 27.3951C63.0964 27.4344 63.0738 27.4833 63.0665 27.5355C63.0592 27.5877 63.0676 27.6409 63.0906 27.6884C63.1135 27.7358 63.1501 27.7754 63.1955 27.8021C63.241 27.8287 63.2934 27.8413 63.346 27.8382Z" fill="#263238"/>
<path d="M68.1216 28.2641C67.9658 28.2227 67.8124 28.1731 67.6619 28.1154C67.4942 28.0861 67.3404 28.0033 67.2235 27.8793C67.1948 27.8326 67.1823 27.7777 67.1878 27.7231C67.1933 27.6685 67.2166 27.6172 67.2541 27.5772C67.3407 27.5092 67.4438 27.4657 67.5528 27.4511C67.6619 27.4366 67.7728 27.4516 67.8741 27.4946C68.0916 27.5514 68.281 27.6856 68.4068 27.8722C68.4317 27.9168 68.4433 27.9675 68.4403 28.0185C68.4373 28.0695 68.4197 28.1185 68.3897 28.1597C68.3596 28.201 68.3184 28.2328 68.2709 28.2513C68.2234 28.2697 68.1715 28.2742 68.1216 28.2641Z" fill="#263238"/>
<path d="M66.9427 29.9163C66.9427 29.8998 66.9781 29.9446 66.9734 29.9635C66.9003 30.4356 66.8932 30.9855 67.301 31.1956C67.3128 31.1956 67.301 31.2263 67.301 31.2216C66.7895 31.0965 66.806 30.3553 66.9427 29.9163Z" fill="#263238"/>
<path d="M67.4362 29.482C68.2023 29.5198 68.0703 31.0516 67.3608 31.0162C66.6513 30.9808 66.795 29.4442 67.4362 29.482Z" fill="#263238"/>
<path d="M67.7304 29.5882C67.8554 29.6872 67.9661 29.8522 68.1335 29.8805C68.3009 29.9088 68.4729 29.7674 68.6049 29.6236C68.6191 29.6095 68.6309 29.6236 68.6309 29.6448C68.6097 29.9371 68.4706 30.2294 68.1594 30.2459C67.8483 30.2624 67.688 29.9819 67.6385 29.6825C67.6244 29.626 67.6786 29.5482 67.7304 29.5882Z" fill="#263238"/>
<path d="M64.0835 29.6803C64.0835 29.6614 64.0458 29.6992 64.0434 29.7204C64.0222 30.1925 63.9162 30.7377 63.4754 30.8605C63.4612 30.8605 63.4589 30.8888 63.4754 30.8864C64.0057 30.844 64.1377 30.124 64.0835 29.6803Z" fill="#263238"/>
<path d="M63.7 29.1398C62.9434 29.0194 62.7572 30.556 63.4643 30.6575C64.1715 30.759 64.3365 29.2389 63.7 29.1398Z" fill="#263238"/>
<path d="M63.3695 29.2082C63.2398 29.2743 63.1031 29.4088 62.9593 29.3994C62.8155 29.3899 62.6859 29.2129 62.5987 29.0406C62.5987 29.0241 62.5751 29.0406 62.5728 29.0548C62.5303 29.3451 62.5916 29.6614 62.8651 29.7629C63.1385 29.8644 63.3365 29.6165 63.4355 29.3333C63.4543 29.2625 63.4213 29.1751 63.3695 29.2082Z" fill="#263238"/>
<path d="M66.2165 33.7495C66.0987 33.8556 65.9808 34.0041 65.804 34.0112C65.6281 34.0003 65.4563 33.953 65.2996 33.8721C65.2964 33.8706 65.2927 33.8701 65.2892 33.8708C65.2857 33.8714 65.2825 33.8733 65.2801 33.8759C65.2777 33.8786 65.2763 33.8819 65.2759 33.8855C65.2756 33.8891 65.2765 33.8927 65.2784 33.8957C65.3426 33.9915 65.4314 34.0684 65.5355 34.1181C65.6396 34.1679 65.7551 34.1888 65.87 34.1785C65.968 34.1573 66.0576 34.1074 66.1272 34.0352C66.1969 33.9631 66.2435 33.8718 66.2613 33.7731C66.2707 33.7448 66.2354 33.733 66.2165 33.7495Z" fill="#263238"/>
<path d="M64.407 31.84C64.407 31.84 64.2397 32.5481 64.2067 32.8715C64.2067 32.9045 64.2821 32.9258 64.3953 32.9447C64.3975 32.9457 64.3999 32.9463 64.4023 32.9463C64.4048 32.9463 64.4072 32.9457 64.4094 32.9447C64.6887 33.0245 64.9846 33.0265 65.2649 32.9504C65.5453 32.8742 65.7996 32.7229 66.0005 32.5127C66.0264 32.482 65.9863 32.4443 65.9557 32.4608C65.5016 32.7107 64.979 32.8068 64.466 32.7346C64.4518 32.6378 64.7936 31.5544 64.7418 31.5379C64.4801 31.5352 64.2193 31.5678 63.9662 31.6347C64.2727 30.1689 64.8125 28.7668 65.0977 27.3034C65.0992 27.2926 65.0969 27.2816 65.0913 27.2723C65.0856 27.263 65.0769 27.2559 65.0666 27.2523C65.0563 27.2487 65.0451 27.2487 65.0349 27.2525C65.0247 27.2562 65.016 27.2634 65.0105 27.2727C64.3434 28.7055 63.9521 30.3813 63.5962 31.8872C63.5585 32.0666 64.268 31.8849 64.407 31.84Z" fill="#263238"/>
<path d="M64.6357 32.7865C64.7811 33.0433 64.9896 33.2586 65.2415 33.412C65.3846 33.493 65.5498 33.5261 65.713 33.5064C66.0595 33.4663 66.1113 33.1594 66.0877 32.8856C66.0738 32.7409 66.043 32.5983 65.9958 32.4608C65.5892 32.7129 65.1123 32.8271 64.6357 32.7865Z" fill="#263238"/>
<path d="M65.2417 33.4113C65.3848 33.4921 65.55 33.5252 65.7131 33.5055C66.0596 33.4655 66.1115 33.159 66.0879 32.8856C65.7131 32.8715 65.3218 33.0648 65.2417 33.4113Z" fill="#FF9CBD"/>
<path d="M74.0148 22.0138C74.9388 22.7502 77.7863 22.4198 78.8894 20.9398C80.4003 18.9028 77.8287 15.4119 75.2335 16.5897C72.6383 17.7675 73.3077 21.4449 74.0148 22.0138Z" fill="#263238"/>
<path d="M78.3589 17.2932C78.9104 17.9165 79.2998 18.6664 79.4926 19.4765C79.5826 19.8565 79.5527 20.255 79.4071 20.6173C79.2615 20.9796 79.0072 21.2877 78.6794 21.4993C78.3479 21.7301 77.9872 21.9158 77.6069 22.0516C77.2272 22.2005 76.8318 22.3058 76.4284 22.3656C75.6068 22.4897 74.7669 22.3673 74.0146 22.0139C74.7238 22.5274 75.5946 22.7664 76.4661 22.6866C76.9025 22.6538 77.3328 22.5641 77.746 22.4198C78.1642 22.2787 78.5609 22.0801 78.9246 21.8298C79.3042 21.5632 79.5969 21.1905 79.7661 20.7582C79.9191 20.3232 79.9331 19.8513 79.8061 19.408C79.5527 18.5707 79.0473 17.8321 78.3589 17.2932Z" fill="#263238"/>
<path d="M98.995 93.8818L86.6223 93.9384L74.2473 93.9596L49.4997 93.9997L24.752 93.9596L12.3794 93.9384L0.00439453 93.8818L12.3794 93.8229L24.752 93.804L49.4997 93.7639L74.2473 93.804L86.6223 93.8252L98.995 93.8818Z" fill="#263238"/>
</svg>
