<svg width="19" height="19" viewBox="0 0 19 19" fill="none" xmlns="http://www.w3.org/2000/svg">
<path d="M7.93139 0.0409867C7.58401 0.0434086 7.24108 0.0927836 6.90822 0.192276C6.57799 0.291104 6.27377 0.434346 5.99768 0.616768C6.29932 1.38325 7.06936 2.35622 7.96135 3.18681C8.89268 4.05407 9.96057 4.79091 10.6502 5.12321L10.6583 5.12712L10.6662 5.13114C11.3 5.45673 11.7487 5.96915 12.0076 6.53442C12.1744 6.89841 12.2716 7.27966 12.3282 7.66724C12.836 7.27114 13.3713 6.95396 13.9156 6.72376C13.8742 6.00853 13.7168 5.25853 13.4303 4.50755C12.8292 2.93255 11.7795 1.66458 10.5906 0.891299C9.73611 0.335518 8.81916 0.0348148 7.93139 0.0409867ZM4.9467 1.69353C4.74697 2.00345 4.58318 2.34899 4.45873 2.72427C4.04311 3.97716 4.07682 5.5488 4.67787 7.12388C5.04162 8.07712 5.56994 8.91763 6.19389 9.60435C6.80858 9.78825 7.41654 10.0724 7.98764 10.4579C8.42889 10.7559 8.82209 11.0969 9.16283 11.4678C9.27404 11.4948 9.38529 11.5179 9.49643 11.536C9.70815 10.9837 9.98295 10.4343 10.3216 9.90122C10.5265 9.57844 10.751 9.26852 10.9938 8.97321C10.9967 8.7704 10.995 8.57388 10.9854 8.38626C10.9592 7.87884 10.878 7.44485 10.7291 7.12009C10.5804 6.79532 10.3865 6.56845 10.0237 6.38204L10.0397 6.38993C9.146 5.95927 8.03002 5.17228 7.00295 4.21591C6.18654 3.45575 5.4292 2.60431 4.9467 1.69353ZM15.8745 6.99528C15.3469 6.99958 14.7887 7.12212 14.224 7.35653C13.0194 7.85661 11.8097 8.8702 10.9151 10.2783C10.4574 10.9987 10.1285 11.7498 9.92397 12.4862C10.7267 13.833 10.9238 15.38 10.3456 16.6793C10.439 16.8128 10.5434 16.9384 10.6575 17.0548C11.503 16.3253 12.4774 15.7211 13.1699 15.1006C13.5484 14.7615 13.835 14.4258 13.9942 14.106C14.1535 13.7862 14.2083 13.4929 14.1255 13.0934L14.1206 13.0702L14.1174 13.0467C13.8029 10.7696 14.3547 9.43142 15.159 8.61275C15.8057 7.95454 16.4495 7.60786 16.8936 7.15017C16.5727 7.04353 16.2306 6.99235 15.8745 6.99528ZM18.0912 7.93095C17.4415 8.73837 16.6406 9.1113 16.1621 9.59837C15.6123 10.1581 15.2327 10.8318 15.5092 12.8446C15.6423 13.529 15.5253 14.1863 15.253 14.733C14.9758 15.2895 14.5612 15.742 14.1083 16.1479C13.4203 16.7644 12.6267 17.2923 11.9628 17.8073C12.7157 18.0029 13.5729 17.9082 14.4458 17.5458C15.6504 17.0458 16.8601 16.0322 17.7547 14.6241C18.6495 13.2159 19.0532 11.6902 18.9941 10.3872C18.949 9.39075 18.6412 8.53692 18.0912 7.93099L18.0912 7.93095ZM15.5092 12.8446C15.5069 12.8323 15.505 12.8201 15.5024 12.8078L15.5105 12.8544C15.5102 12.8511 15.5097 12.8479 15.5092 12.8446H15.5092ZM4.56299 10.0546C3.8449 10.0481 3.16846 10.2056 2.59912 10.5158C2.60303 10.5159 2.60643 10.5162 2.61033 10.5163C2.94744 10.5283 3.37065 10.4885 3.85791 10.555C4.34514 10.6216 4.91592 10.8428 5.3483 11.3321C5.78072 11.8213 6.07721 12.5149 6.28373 13.511L6.28861 13.5342L6.29182 13.5577C6.38764 14.2527 6.83033 14.6548 7.59783 15.0312C8.25268 15.3524 9.09342 15.5818 9.89147 15.8153C10.2489 14.2138 9.40084 12.2604 7.5942 11.0407C6.62006 10.3831 5.55225 10.0636 4.56307 10.0546H4.56299ZM1.39588 11.6736C0.408771 13.374 1.20041 15.8692 3.35315 17.3225C5.47131 18.7526 8.03229 18.5833 9.26486 17.0999C8.54471 16.8947 7.7283 16.6616 6.97854 16.2939C6.01174 15.8197 5.09026 15.0228 4.90432 13.7852C4.72725 12.9375 4.49065 12.4852 4.29455 12.2633C4.09768 12.0404 3.94416 11.9862 3.6676 11.9485C3.39104 11.9107 3.01096 11.9377 2.56084 11.9218C2.21006 11.9095 1.7985 11.8591 1.39588 11.6737V11.6736ZM4.90436 13.7852C4.90522 13.7891 4.90608 13.7927 4.9069 13.7966L4.89881 13.7499C4.90045 13.7618 4.9026 13.7733 4.9044 13.7852L4.90436 13.7852Z" fill="#F47356"/>
</svg>
