<svg width="194" height="242" viewBox="0 0 194 242" fill="none" xmlns="http://www.w3.org/2000/svg">
<path d="M122.002 91.6017C135.712 90.8192 148.413 103.787 149.345 120.033C150.276 136.278 139.268 149.437 125.536 150.208C111.804 150.979 105.451 138.661 104.519 122.415C103.743 108.878 105.96 97.5687 115.166 93.6528C117.321 92.6088 119.628 91.9164 122.002 91.6017Z" fill="#5B7E9A"/>
<path d="M137.822 120.062C136.923 104.344 128.45 92.0455 118.898 92.5918C109.346 93.1381 102.331 106.323 103.23 122.041C104.129 137.758 112.601 150.057 122.153 149.511C131.706 148.965 138.72 135.78 137.822 120.062Z" fill="#5B7E9A"/>
<path d="M117.87 92.611C118.522 93.3097 116.523 95.9767 115.996 100.987C115.633 103.868 115.769 106.789 116.399 109.624C116.78 111.222 117.374 112.762 118.166 114.202C118.988 115.792 120.035 117.459 121.138 119.311C122.297 121.196 123.286 123.18 124.094 125.24C124.838 127.185 125.412 129.191 125.807 131.235C126.502 134.709 126.542 138.281 125.926 141.77C125.533 144.141 124.63 146.398 123.28 148.386C122.29 149.767 121.429 150.276 121.087 150.023C120.235 149.568 121.538 146.39 121.396 141.317C121.154 134.666 119.159 128.197 115.612 122.566C114.481 120.751 113.448 118.878 112.514 116.955C111.56 114.967 110.918 112.844 110.61 110.661C110.107 107.065 110.443 103.401 111.592 99.9563C112.31 97.6205 113.6 95.5011 115.346 93.7904C115.628 93.5341 115.925 93.2941 116.234 93.0717C116.48 92.9148 116.739 92.7807 117.01 92.6712C117.433 92.4387 117.72 92.4187 117.87 92.611Z" fill="#5B7E9A"/>
<g opacity="0.3">
<path d="M117.822 92.5432C117.728 92.718 117.74 92.6962 117.635 92.8928C116.015 94.6332 114.828 96.7313 114.171 99.0165C113.668 100.572 113.346 102.181 113.212 103.811C113.038 105.706 113.084 107.614 113.349 109.498C113.665 111.603 114.296 113.648 115.221 115.564C116.168 117.473 117.248 119.341 118.303 121.125C121.938 126.874 123.902 133.521 123.976 140.322C123.87 143.006 123.531 145.675 122.961 148.3L123.147 147.95C124.369 145.947 125.176 143.719 125.521 141.399C125.673 140.666 125.71 139.886 125.804 139.08C125.897 138.273 125.898 137.431 125.854 136.566C125.822 134.721 125.618 132.884 125.246 131.076C124.842 129.076 124.27 127.113 123.535 125.209L122.921 123.73C122.696 123.231 122.454 122.737 122.213 122.243C121.707 121.271 121.19 120.293 120.626 119.403C119.534 117.557 118.471 115.867 117.634 114.227C116.841 112.719 116.254 111.113 115.888 109.449C115.561 107.91 115.382 106.344 115.353 104.771C115.331 103.377 115.422 101.985 115.624 100.606C115.928 98.5919 116.504 96.6281 117.336 94.7684C117.505 94.4516 117.558 94.1428 117.665 93.8631C117.772 93.5834 117.921 93.3824 117.955 93.1617C117.988 92.941 117.884 92.6889 117.822 92.5432Z" fill="black"/>
</g>
<path d="M111.189 108.654C111.312 109.203 111.39 109.761 111.422 110.323C111.66 111.83 112.057 113.307 112.607 114.73C113.448 116.833 114.457 118.865 115.625 120.805C116.912 123.022 118.428 125.416 119.752 128.116C120.994 130.681 121.736 133.459 121.939 136.301C122.125 138.592 122.099 140.894 121.861 143.18C121.683 145.12 121.409 146.658 121.286 147.757C121.232 148.323 121.113 148.882 120.931 149.421C120.916 148.857 120.949 148.292 121.031 147.734C121.121 146.645 121.302 145.071 121.419 143.14C121.577 140.879 121.554 138.609 121.35 136.352C121.096 133.606 120.347 130.928 119.139 128.449C117.847 125.794 116.343 123.405 115.09 121.151C113.926 119.173 112.94 117.096 112.141 114.945C111.626 113.479 111.288 111.956 111.137 110.409C111.083 109.824 111.101 109.235 111.189 108.654Z" fill="#263238"/>
<path d="M117.373 94.4371C117.482 94.4954 116.813 96.0897 116.237 98.8277C115.48 102.383 115.459 106.055 116.177 109.618C117.053 113.763 119.395 116.949 120.74 119.478C121.3 120.449 121.788 121.46 122.2 122.503C122.374 122.875 122.489 123.273 122.54 123.681C122.439 123.711 121.845 122.089 120.352 119.706C118.859 117.323 116.512 114.092 115.597 109.758C114.86 106.115 114.949 102.354 115.856 98.7511C116.129 97.6645 116.478 96.5983 116.899 95.5602C117.005 95.1658 117.164 94.7879 117.373 94.4371Z" fill="#263238"/>
<path d="M123.929 93.5143C124.118 93.5512 124.301 93.6158 124.472 93.706C124.978 93.9314 125.467 94.1925 125.936 94.4872C127.65 95.5762 129.192 96.9149 130.512 98.459C132.467 100.759 134.066 103.339 135.255 106.114C135.975 107.744 136.559 109.431 136.999 111.157C137.415 113.019 137.717 114.905 137.902 116.804C138.581 123.472 137.855 130.209 135.77 136.58C135.121 138.506 134.23 140.341 133.121 142.044C132.829 142.512 132.498 142.956 132.133 143.369C132.023 143.521 131.896 143.661 131.756 143.786C131.756 143.786 132.124 143.098 132.914 141.906C133.92 140.176 134.734 138.342 135.342 136.436C137.289 130.096 137.944 123.429 137.27 116.831C136.805 110.216 134.335 103.898 130.189 98.7219C128.92 97.1784 127.448 95.8126 125.815 94.6613C124.628 93.8874 123.9 93.5689 123.929 93.5143Z" fill="#263238"/>
<g opacity="0.2">
<path d="M108.289 106.461C108.026 106.607 107.824 106.844 107.723 107.127C104.264 114.212 103.543 122.325 105.7 129.909C107.5 136.161 110.811 142.714 115.886 146.223C116.231 146.502 116.647 146.677 117.088 146.728C117.528 146.778 117.974 146.702 118.373 146.508C118.771 146.313 119.106 146.009 119.338 145.631C119.569 145.253 119.688 144.817 119.68 144.374C120.164 140.154 120.379 133.939 118.671 129.799C116.76 125.2 112.995 121.577 111.012 117.009C109.825 114.272 109.298 111.294 109.475 108.315C109.542 107.869 109.507 107.413 109.372 106.983C109.287 106.778 109.13 106.612 108.93 106.516C108.73 106.42 108.502 106.4 108.289 106.461Z" fill="#5B7E9A"/>
</g>
<g opacity="0.2">
<path d="M130.601 138.06C130.877 137.91 131.086 137.66 131.185 137.361C134.818 129.97 135.595 121.499 133.368 113.57C131.491 107.039 128.062 100.183 122.813 96.526C122.449 96.247 122.016 96.0743 121.56 96.0271C121.104 95.9799 120.644 96.0601 120.231 96.2587C119.818 96.4573 119.469 96.7665 119.221 97.152C118.973 97.5375 118.837 97.9841 118.828 98.4422C118.318 102.844 118.097 109.281 119.859 113.66C121.848 118.455 125.769 122.26 127.831 127.023C129.061 129.889 129.601 133.004 129.406 136.117C129.335 136.581 129.376 137.055 129.524 137.5C129.607 137.707 129.761 137.877 129.958 137.98C130.156 138.083 130.384 138.112 130.601 138.06Z" fill="#5B7E9A"/>
</g>
<path d="M124.477 98.1159C124.893 98.4736 125.265 98.8796 125.586 99.3253C126.008 99.8106 126.402 100.321 126.764 100.852C127.274 101.547 127.747 102.268 128.18 103.012C129.357 104.901 130.373 106.884 131.219 108.943C132.232 111.473 133.016 114.09 133.56 116.761C134.056 119.443 134.314 122.164 134.33 124.891C134.319 127.115 134.121 129.333 133.738 131.524C133.603 132.462 133.37 133.292 133.195 134.041C133.061 134.67 132.889 135.291 132.68 135.9C132.539 136.433 132.348 136.951 132.107 137.447C131.987 137.383 132.727 135.181 133.28 131.462C133.592 129.29 133.739 127.097 133.72 124.903C133.688 119.498 132.663 114.145 130.694 109.111C129.883 107.071 128.921 105.093 127.815 103.196C125.945 99.9941 124.375 98.2018 124.477 98.1159Z" fill="white"/>
<path d="M69.8244 167.203C76.2716 179.346 69.7444 196.285 55.3926 203.926C41.0408 211.566 24.4813 207.01 18.0997 194.903C11.718 182.795 20.2083 171.83 34.5929 164.207C46.5726 157.855 57.7684 155.155 65.1741 161.872C66.996 163.392 68.5656 165.192 69.8244 167.203Z" fill="#5B7E9A"/>
<path d="M67.598 164.822C63.1146 156.37 48.2054 155.499 34.2975 162.876C20.3895 170.253 12.7495 183.086 17.2329 191.538C21.7164 199.991 36.6256 200.862 50.5335 193.485C64.4415 186.107 72.0815 173.275 67.598 164.822Z" fill="#5B7E9A"/>
<path d="M67.186 163.915C66.8354 164.808 63.5635 164.101 58.7898 165.708C56.0421 166.592 53.4644 167.936 51.1666 169.683C49.8779 170.688 48.7257 171.856 47.7393 173.159C46.6383 174.565 45.5642 176.209 44.3312 177.994C43.1048 179.833 41.7147 181.557 40.178 183.146C38.7249 184.638 37.1406 185.995 35.4444 187.203C32.5808 189.288 29.3512 190.816 25.9236 191.709C23.602 192.356 21.1682 192.493 18.7886 192.112C17.1242 191.785 16.2918 191.215 16.3414 190.806C16.4502 189.84 19.8388 189.697 24.3913 187.452C30.333 184.45 35.3775 179.932 39.0154 174.357C40.1849 172.665 41.4011 170.886 42.8198 169.201C44.2374 167.499 45.9055 166.023 47.7668 164.823C50.8205 162.859 54.2902 161.635 57.9 161.247C60.3239 160.928 62.7891 161.216 65.0741 162.086C65.4564 162.29 65.7951 162.471 66.0792 162.622C66.3245 162.776 66.5536 162.955 66.763 163.155C67.1322 163.437 67.275 163.695 67.186 163.915Z" fill="#5B7E9A"/>
<g opacity="0.3">
<path d="M67.232 163.855C67.0463 163.756 67.0543 163.872 66.8351 163.783C64.5743 163.045 62.1724 162.845 59.8205 163.198C58.1849 163.387 56.5753 163.756 55.0214 164.301C53.2356 164.93 51.5304 165.768 49.9415 166.797C48.1598 167.965 46.5643 169.394 45.2086 171.037C43.8242 172.684 42.6248 174.458 41.4494 176.161C37.7371 181.859 32.5168 186.415 26.3693 189.322C23.8863 190.351 21.3155 191.154 18.6882 191.722C18.7975 191.78 18.9417 191.773 19.0852 191.793C21.4182 192.063 23.7817 191.864 26.0367 191.208C26.7557 191.044 27.4725 190.753 28.2491 190.508C29.0256 190.262 29.7716 189.917 30.5526 189.505C32.2145 188.702 33.7994 187.748 35.2873 186.656C36.9379 185.454 38.4839 184.114 39.9087 182.652L41.0038 181.467C41.3637 181.056 41.7186 180.628 42.0567 180.205C42.7277 179.342 43.3551 178.455 43.9825 177.569C45.1929 175.801 46.2895 174.14 47.4248 172.697C48.5 171.343 49.7545 170.143 51.1537 169.128C52.4393 168.194 53.8113 167.384 55.251 166.711C56.5042 166.104 57.8075 165.607 59.1462 165.225C61.1013 164.647 63.1262 164.339 65.1647 164.31C65.5303 164.308 65.8312 164.244 66.1255 164.219C66.3826 164.229 66.6402 164.222 66.8961 164.195C67.1023 164.151 67.1293 163.969 67.232 163.855Z" fill="black"/>
</g>
<path d="M49.8241 164.545C49.3737 164.885 48.8969 165.189 48.3983 165.454C47.129 166.298 45.9535 167.275 44.8917 168.369C43.3384 170.014 41.9239 171.785 40.6627 173.664C39.1725 175.746 37.6299 178.137 35.7347 180.452C33.9382 182.649 31.7429 184.488 29.2642 185.87C27.2622 186.994 25.1602 187.931 22.9853 188.667C21.1509 189.316 19.6051 189.741 18.5722 190.046C18.0478 190.232 17.506 190.367 16.955 190.446C17.4565 190.211 17.9767 190.02 18.5103 189.872C19.5338 189.506 21.0265 188.997 22.8397 188.309C24.9499 187.488 26.9901 186.497 28.9402 185.346C31.338 183.973 33.4643 182.173 35.214 180.034C37.0749 177.757 38.6336 175.388 40.1951 173.33C41.5084 171.447 42.9884 169.686 44.6172 168.068C45.7311 166.986 46.9707 166.04 48.3095 165.252C48.7864 164.961 49.2944 164.723 49.8241 164.545Z" fill="#263238"/>
<path d="M65.3272 164.242C65.3351 164.358 63.5774 164.417 60.8632 165.032C57.3185 165.823 53.9746 167.335 51.0393 169.474C47.6261 172.004 45.6563 175.458 43.9738 177.691C43.3248 178.606 42.6093 179.472 41.8331 180.282C41.5704 180.598 41.2561 180.866 40.9034 181.077C40.816 181.03 42.0677 179.789 43.5929 177.431C45.1181 175.073 47.0995 171.597 50.6541 168.96C53.654 166.739 57.1189 165.229 60.7876 164.542C61.8875 164.33 63.0021 164.202 64.1216 164.16C64.5253 164.127 64.9317 164.154 65.3272 164.242Z" fill="#263238"/>
<path d="M68.8964 169.81C68.8964 169.81 68.9357 170 68.9531 170.388C68.962 170.939 68.9307 171.49 68.8594 172.036C68.5846 174.049 68.0116 176.009 67.1593 177.852C65.8839 180.588 64.2072 183.119 62.1845 185.36C61.0075 186.696 59.7162 187.928 58.3252 189.041C56.8089 190.198 55.2209 191.259 53.5707 192.216C47.8071 195.63 41.3913 197.796 34.738 198.574C32.7194 198.782 30.6829 198.737 28.6754 198.441C28.1306 198.362 27.5915 198.247 27.0613 198.099C26.8696 198.069 26.6841 198.008 26.5121 197.918C26.5121 197.918 27.3068 198.034 28.7097 198.193C30.6996 198.39 32.7053 198.363 34.6893 198.113C41.2532 197.231 47.5742 195.045 53.2802 191.682C59.098 188.493 63.8086 183.61 66.7871 177.682C67.6569 175.882 68.2832 173.974 68.6497 172.008C68.8532 170.601 68.841 169.809 68.8964 169.81Z" fill="#263238"/>
<g opacity="0.2">
<path d="M50.6108 160.993C50.3656 160.816 50.0643 160.735 49.7637 160.765C41.8809 160.567 34.2043 163.296 28.2151 168.425C23.2826 172.67 18.6819 178.398 17.6337 184.492C17.5206 184.923 17.5334 185.377 17.6707 185.8C17.8079 186.224 18.0637 186.6 18.4079 186.882C18.752 187.165 19.1699 187.343 19.6122 187.395C20.0544 187.447 20.5024 187.372 20.9029 187.177C24.9321 185.86 30.6741 183.464 33.7088 180.171C37.0634 176.515 38.8063 171.593 42.147 167.831C44.1411 165.609 46.6315 163.889 49.4157 162.811C49.8512 162.69 50.2508 162.465 50.5799 162.155C50.721 161.996 50.8014 161.792 50.8071 161.579C50.8127 161.367 50.7432 161.159 50.6108 160.993Z" fill="#EBEFF2"/>
</g>
<g opacity="0.2">
<path d="M31.1967 194.453C31.4481 194.644 31.7628 194.731 32.0766 194.698C40.3009 194.9 48.3112 192.064 54.5751 186.731C59.7392 182.314 64.5352 176.326 65.6622 169.979C65.7636 169.532 65.739 169.066 65.591 168.632C65.443 168.198 65.1775 167.813 64.8241 167.521C64.4706 167.23 64.043 167.041 63.589 166.978C63.135 166.915 62.6723 166.979 62.2524 167.163C58.0389 168.536 52.0397 171.019 48.8629 174.447C45.327 178.258 43.5229 183.401 40.0408 187.27C37.9531 189.584 35.3489 191.373 32.4399 192.491C31.9693 192.631 31.5403 192.884 31.1904 193.228C31.0452 193.4 30.9661 193.617 30.9672 193.842C30.9683 194.066 31.0497 194.283 31.1967 194.453Z" fill="#5B7E9A"/>
</g>
<path d="M64.9202 172.264C64.7649 172.79 64.5507 173.298 64.2817 173.776C64.0131 174.362 63.7094 174.931 63.3722 175.48C63.0166 176.147 62.6143 176.9 62.0343 177.672C60.7887 179.517 59.3916 181.255 57.8577 182.868C54.1501 186.865 49.6938 190.095 44.7416 192.375C42.7119 193.3 40.6091 194.056 38.4547 194.635C37.5391 194.904 36.67 195.086 35.9525 195.194C35.3255 195.336 34.6899 195.438 34.0498 195.498C33.5101 195.599 32.9609 195.64 32.4122 195.621C32.3824 195.493 34.7156 195.25 38.3223 194.199C40.4294 193.577 42.4871 192.798 44.478 191.869C46.9016 190.708 49.2244 189.346 51.4223 187.799C53.5902 186.218 55.62 184.456 57.4899 182.531C58.9897 180.932 60.3701 179.224 61.6199 177.423C63.8416 174.285 64.8109 172.206 64.9202 172.264Z" fill="#EBEFF2"/>
<path d="M125.143 15.8831C132.307 22.9484 131.534 36.2069 123.152 44.7317C114.771 53.2566 102.25 53.7051 95.0932 46.6012C87.9361 39.4973 91.4727 30.0295 99.8364 21.5374C106.795 14.4428 114.029 10.0923 120.679 13.1497C122.304 13.8143 123.812 14.7373 125.143 15.8831Z" fill="#5B7E9A"/>
<path d="M123.09 14.7036C118.091 9.78873 107.489 12.4657 99.41 20.6827C91.3305 28.8996 88.8328 39.5451 93.8313 44.4599C98.8297 49.3747 109.432 46.6978 117.511 38.4808C125.591 30.2638 128.088 19.6184 123.09 14.7036Z" fill="#5B7E9A"/>
<path d="M122.606 14.1925C122.582 14.6849 120.061 14.701 116.891 16.8272C115.051 18.0224 113.445 19.5437 112.152 21.3161C110.7 23.222 109.973 25.7676 109.055 28.829C108.613 30.3488 108.039 31.8275 107.342 33.2486C106.686 34.5789 105.911 35.847 105.025 37.0373C103.556 39.093 101.726 40.8651 99.6237 42.2675C98.2076 43.2191 96.621 43.888 94.9511 44.2374C93.771 44.4498 93.0929 44.3265 93.0536 44.1371C92.9393 43.6411 95.3833 42.9803 98.2539 40.4417C101.952 37.0563 104.626 32.7013 105.972 27.8718C106.421 26.4267 106.86 24.9204 107.457 23.4848C108.029 22.0484 108.82 20.7089 109.801 19.5141C111.425 17.5209 113.471 15.9139 115.793 14.8092C117.343 14.0481 119.044 13.6464 120.771 13.6341C121.95 13.6598 122.59 13.9871 122.606 14.1925Z" fill="#5B7E9A"/>
<g opacity="0.3">
<path d="M122.636 14.1379C122.486 14.1284 122.523 14.1903 122.346 14.1801C120.605 14.1605 118.883 14.5492 117.319 15.3152C116.227 15.808 115.196 16.4256 114.246 17.1558C113.135 17.9875 112.128 18.9482 111.245 20.0178C110.263 21.2274 109.467 22.5768 108.884 24.0214C108.31 25.4645 107.81 26.936 107.387 28.4301C106.056 33.2312 103.412 37.5658 99.753 40.9469C98.2497 42.2142 96.6364 43.3449 94.9322 44.3256L95.2272 44.2725C96.9132 43.9561 98.5164 43.2973 99.9377 42.3367C100.41 42.0557 100.852 41.7018 101.332 41.3545C101.812 41.0071 102.272 40.5928 102.722 40.1449C103.709 39.2209 104.608 38.2061 105.406 37.1139C106.294 35.916 107.074 34.6407 107.734 33.3033L108.317 32.2108L108.791 31.0601C109.066 30.3084 109.313 29.556 109.549 28.7978C110.01 27.3032 110.407 25.9011 110.884 24.6395C111.312 23.4714 111.901 22.3684 112.633 21.3621C113.299 20.422 114.063 19.5547 114.912 18.7746C116.741 17.0463 118.915 15.7241 121.292 14.8944C121.543 14.818 121.745 14.7015 121.952 14.6294C122.159 14.5573 122.333 14.4954 122.472 14.4438C122.612 14.3921 122.583 14.2362 122.636 14.1379Z" fill="black"/>
</g>
<path d="M110.612 18.3889C109.639 19.5598 108.789 20.8274 108.074 22.1717C107.349 23.672 106.748 25.2291 106.277 26.8273C105.704 28.6125 105.152 30.6199 104.338 32.6702C103.566 34.6107 102.432 36.3872 100.997 37.9053C99.8361 39.1292 98.568 40.2469 97.2078 41.2449C96.0785 42.0459 95.0855 42.723 94.4204 43.1541C94.0821 43.4024 93.7137 43.6067 93.324 43.7621C93.2366 43.7154 94.7053 42.6465 96.9238 40.8828C99.8966 38.7128 102.246 35.7984 103.735 32.4326C104.53 30.4427 105.093 28.4412 105.695 26.6567C106.208 25.0503 106.861 23.492 107.646 21.9996C108.191 20.9958 108.861 20.066 109.642 19.2329C109.918 18.9012 110.246 18.6162 110.612 18.3889Z" fill="#263238"/>
<path d="M121.344 14.7961C121.385 14.9024 120.188 15.3581 118.426 16.3972C116.139 17.7507 114.15 19.5543 112.579 21.6986C111.17 23.9472 110.112 26.3983 109.445 28.9668C109.172 30.0607 108.677 31.0867 107.991 31.9806C107.914 31.9398 108.464 30.8298 109.01 28.8334C109.567 26.1671 110.598 23.6221 112.052 21.319C113.67 19.1147 115.768 17.3065 118.187 16.0307C119.163 15.446 120.23 15.0287 121.344 14.7961Z" fill="#263238"/>
<path d="M125.073 17.9089C125.324 18.3914 125.492 18.9128 125.569 19.4511C125.834 20.924 125.878 22.4283 125.7 23.9142C125.402 26.1082 124.782 28.2461 123.858 30.2583C123.341 31.4628 122.723 32.6213 122.01 33.7215C121.212 34.8711 120.337 35.9657 119.391 36.998C116.103 40.6612 112.078 43.5881 107.579 45.5868C106.208 46.1754 104.768 46.5858 103.292 46.808C102.894 46.8732 102.491 46.907 102.087 46.909C101.816 46.9184 101.666 46.9089 101.667 46.8812C103.641 46.5501 105.566 45.9741 107.397 45.1664C111.765 43.0855 115.678 40.16 118.91 36.5586C122.259 33.0634 124.471 28.6352 125.253 23.858C125.486 22.4268 125.527 20.9709 125.373 19.529C125.191 18.4771 125.011 17.9184 125.073 17.9089Z" fill="#263238"/>
<g opacity="0.2">
<path d="M110.36 15.784C110.147 15.7116 109.915 15.7233 109.711 15.8167C104.167 17.4194 99.4124 21.0167 96.3628 25.9159C93.8618 29.9711 91.9281 34.9887 92.5236 39.4752C92.5403 39.8009 92.6499 40.1149 92.8394 40.3803C93.0288 40.6457 93.2903 40.8514 93.5928 40.973C93.8954 41.0946 94.2264 41.1271 94.5469 41.0667C94.8673 41.0063 95.1638 40.8554 95.4013 40.6319C97.9148 38.8151 101.394 35.8717 102.792 32.9118C104.342 29.6124 104.46 25.7875 105.95 22.4699C106.849 20.4768 108.208 18.7247 109.914 17.3566C110.19 17.1774 110.417 16.9321 110.575 16.6429C110.653 16.4987 110.674 16.3306 110.634 16.1717C110.594 16.0128 110.496 15.8745 110.36 15.784Z" fill="white"/>
</g>
<g opacity="0.2">
<path d="M104.191 43.4414C104.41 43.5082 104.646 43.4949 104.856 43.4036C110.664 41.7608 115.658 38.0253 118.874 32.9178C121.49 28.6994 123.535 23.4466 122.917 18.7656C122.901 18.4256 122.788 18.0972 122.592 17.8192C122.396 17.5412 122.124 17.3253 121.808 17.1969C121.493 17.0685 121.148 17.0331 120.813 17.0947C120.478 17.1563 120.168 17.3125 119.919 17.5447C117.282 19.4358 113.638 22.5023 112.171 25.5934C110.545 29.0347 110.399 33.0694 108.858 36.4577C107.917 38.5359 106.496 40.3608 104.711 41.7821C104.423 41.9742 104.185 42.2317 104.015 42.5337C103.928 42.6801 103.897 42.8536 103.93 43.021C103.962 43.1884 104.055 43.3381 104.191 43.4414Z" fill="white"/>
</g>
<path d="M122.839 20.4643C122.839 20.4643 122.86 20.897 122.757 21.6698C122.62 22.7601 122.396 23.8378 122.09 24.8929C121.653 26.4652 121.084 27.9975 120.389 29.4735C119.524 31.2721 118.499 32.9895 117.328 34.6053C116.114 36.1997 114.757 37.6788 113.271 39.0236C112.058 40.1181 110.749 41.1012 109.36 41.9611C108.438 42.5562 107.47 43.077 106.465 43.5185C106.108 43.71 105.726 43.8508 105.33 43.937C105.277 43.8248 106.841 43.1296 109.109 41.5888C110.434 40.6798 111.692 39.6764 112.873 38.5864C114.303 37.2411 115.619 35.7788 116.806 34.2147C117.97 32.6384 118.999 30.9663 119.881 29.2163C120.589 27.7769 121.192 26.2875 121.683 24.7602C122.489 22.1447 122.723 20.4446 122.839 20.4643Z" fill="white"/>
</svg>
