<svg width="20" height="12" viewBox="0 0 20 12" fill="none" xmlns="http://www.w3.org/2000/svg">
<path d="M16.75 10.125C16.9862 10.25 17.1945 10.2222 17.375 10.0416C17.5556 9.86107 17.5834 9.65274 17.4584 9.41663L16.25 7.16663L15.375 9.41663L16.75 10.125ZM12.5834 9.33329H13.5834L15.5834 4.37496C15.625 4.26385 15.6148 4.17024 15.5525 4.09413C15.4903 4.01801 15.4173 3.95885 15.3334 3.91663L13.6667 3.24996C13.5417 3.20829 13.4203 3.22218 13.3025 3.29163C13.1848 3.36107 13.1117 3.45829 13.0834 3.58329L12.5834 9.33329ZM6.41671 9.33329H7.41671L6.91671 3.58329C6.88893 3.43052 6.81615 3.32635 6.69837 3.27079C6.5806 3.21524 6.45893 3.20829 6.33337 3.24996L4.66671 3.91663C4.5556 3.95829 4.47587 4.01746 4.42754 4.09413C4.37921 4.17079 4.3756 4.2644 4.41671 4.37496L6.41671 9.33329ZM3.25004 10.125L4.62504 9.41663L3.75004 7.16663L2.54171 9.41663C2.41671 9.65274 2.44449 9.86107 2.62504 10.0416C2.8056 10.2222 3.01393 10.25 3.25004 10.125ZM9.08337 9.33329H10.9167L11.5417 2.29163C11.5695 2.16663 11.5384 2.05885 11.4484 1.96829C11.3584 1.87774 11.2506 1.83274 11.125 1.83329H8.87504C8.76393 1.83329 8.6631 1.87857 8.57254 1.96913C8.48199 2.05968 8.44393 2.16718 8.45837 2.29163L9.08337 9.33329ZM2.87504 11.8333C2.29171 11.8333 1.8056 11.6144 1.41671 11.1766C1.02782 10.7388 0.833374 10.2216 0.833374 9.62496C0.833374 9.45829 0.857819 9.29524 0.906707 9.13579C0.955596 8.97635 1.01449 8.81996 1.08337 8.66663L2.91671 5.16663C2.72226 4.61107 2.72921 4.06246 2.93754 3.52079C3.14587 2.97913 3.51393 2.59718 4.04171 2.37496L5.70837 1.70829C5.90282 1.63885 6.09726 1.59024 6.29171 1.56246C6.48615 1.53468 6.6806 1.54163 6.87504 1.58329C7.06949 1.18051 7.34032 0.843848 7.68754 0.573293C8.03476 0.302737 8.4306 0.167182 8.87504 0.166626H11.125C11.5695 0.166626 11.9653 0.302181 12.3125 0.573293C12.6598 0.844404 12.9306 1.18107 13.125 1.58329C13.3195 1.55551 13.5139 1.55218 13.7084 1.57329C13.9028 1.5944 14.0973 1.6394 14.2917 1.70829L15.9584 2.37496C16.5139 2.59718 16.9028 2.97913 17.125 3.52079C17.3473 4.06246 17.3334 4.59718 17.0834 5.12496L18.9167 8.62496C19 8.77774 19.0625 8.93746 19.1042 9.10413C19.1459 9.27079 19.1667 9.4444 19.1667 9.62496C19.1667 10.25 18.9548 10.7744 18.5309 11.1983C18.107 11.6222 17.5828 11.8338 16.9584 11.8333C16.8056 11.8333 16.6528 11.8161 16.5 11.7816C16.3473 11.7472 16.1945 11.695 16.0417 11.625L14.75 11H5.20837L4.04171 11.625C3.86115 11.7222 3.67032 11.7813 3.46921 11.8025C3.2681 11.8236 3.07004 11.8338 2.87504 11.8333Z" fill="#35536B"/>
</svg>
