<svg width="24" height="24" viewBox="0 0 24 24" fill="none" xmlns="http://www.w3.org/2000/svg">
<path d="M19 3L5 3C3.89 3 3 3.89 3 5L3 9L5 9L5 5L19 5L19 19L5 19L5 15L3 15L3 19C3 19.5304 3.21071 20.0391 3.58579 20.4142C3.96086 20.7893 4.46957 21 5 21L19 21C19.5304 21 20.0391 20.7893 20.4142 20.4142C20.7893 20.0391 21 19.5304 21 19L21 5C21 4.46957 20.7893 3.96086 20.4142 3.58579C20.0391 3.21071 19.5304 3 19 3ZM10.08 15.58L11.5 17L16.5 12L11.5 7L10.08 8.41L12.67 11L3 11L3 13L12.67 13L10.08 15.58Z" fill="white"/>
</svg>
