<svg width="16" height="16" viewBox="0 0 16 16" fill="none" xmlns="http://www.w3.org/2000/svg">
<path d="M14.6667 10.9167C13.6667 10.9167 12.5833 10.75 11.6667 10.4167H11.4167C11.1667 10.4167 11 10.5 10.8333 10.6667L9 12.5C6.66667 11.25 4.66667 9.33333 3.5 7L5.33333 5.16667C5.58333 4.91667 5.66667 4.58333 5.5 4.33333C5.25 3.41667 5.08333 2.33333 5.08333 1.33333C5.08333 0.916667 4.66667 0.5 4.25 0.5H1.33333C0.916667 0.5 0.5 0.916667 0.5 1.33333C0.5 9.16667 6.83333 15.5 14.6667 15.5C15.0833 15.5 15.5 15.0833 15.5 14.6667V11.75C15.5 11.3333 15.0833 10.9167 14.6667 10.9167ZM2.16667 2.16667H3.41667C3.5 2.91667 3.66667 3.66667 3.83333 4.33333L2.83333 5.33333C2.5 4.33333 2.25 3.25 2.16667 2.16667ZM13.8333 13.8333C12.75 13.75 11.6667 13.5 10.6667 13.1667L11.6667 12.1667C12.3333 12.3333 13.0833 12.5 13.8333 12.5V13.8333Z" fill="#F47356"/>
</svg>
