<svg width="20" height="18" viewBox="0 0 20 18" fill="none" xmlns="http://www.w3.org/2000/svg">
<path d="M17.5 2H1.5V0H17.5V2ZM11.8 8C11 8.96 10.5 10.18 10.5 11.5C10.5 12.64 10.93 13.86 11.5 15V16H1.5V10H0.5V8L1.5 3H17.5L18.2 6.5C17.54 6.18 16.82 6 16.06 6L15.86 5H3.14L2.54 8H11.8ZM9.5 10H3.5V14H9.5V10ZM19.5 11.5C19.5 14.1 16 18 16 18C16 18 12.5 14.1 12.5 11.5C12.5 9.6 14.1 8 16 8C17.9 8 19.5 9.6 19.5 11.5ZM17.2 11.6C17.2 11 16.6 10.4 16 10.4C15.4 10.4 14.8 10.9 14.8 11.6C14.8 12.2 15.3 12.8 16 12.8C16.7 12.8 17.3 12.2 17.2 11.6Z" fill="#5F6366"/>
</svg>
