<svg width="12" height="18" viewBox="0 0 12 18" fill="none" xmlns="http://www.w3.org/2000/svg">
<path d="M5.99984 4.41666C6.55237 4.41666 7.08228 4.63615 7.47298 5.02685C7.86368 5.41755 8.08317 5.94746 8.08317 6.49999C8.08317 6.77358 8.02928 7.04449 7.92459 7.29725C7.81989 7.55001 7.66643 7.77967 7.47298 7.97313C7.27952 8.16658 7.04986 8.32004 6.79709 8.42474C6.54433 8.52944 6.27342 8.58332 5.99984 8.58332C5.4473 8.58332 4.9174 8.36383 4.5267 7.97313C4.136 7.58243 3.9165 7.05252 3.9165 6.49999C3.9165 5.94746 4.136 5.41755 4.5267 5.02685C4.9174 4.63615 5.4473 4.41666 5.99984 4.41666ZM5.99984 0.666656C7.54693 0.666656 9.03066 1.28124 10.1246 2.3752C11.2186 3.46916 11.8332 4.95289 11.8332 6.49999C11.8332 10.875 5.99984 17.3333 5.99984 17.3333C5.99984 17.3333 0.166504 10.875 0.166504 6.49999C0.166504 4.95289 0.781085 3.46916 1.87505 2.3752C2.96901 1.28124 4.45274 0.666656 5.99984 0.666656ZM5.99984 2.33332C4.89477 2.33332 3.83496 2.77231 3.05356 3.55371C2.27216 4.33511 1.83317 5.39492 1.83317 6.49999C1.83317 7.33332 1.83317 8.99999 5.99984 14.5917C10.1665 8.99999 10.1665 7.33332 10.1665 6.49999C10.1665 5.39492 9.72752 4.33511 8.94612 3.55371C8.16471 2.77231 7.10491 2.33332 5.99984 2.33332Z" fill="#F47356"/>
</svg>
