<svg width="18" height="20" viewBox="0 0 18 20" fill="none" xmlns="http://www.w3.org/2000/svg">
<path d="M9 5C10.3261 5 11.5978 5.52678 12.5355 6.46447C13.4732 7.40215 14 8.67392 14 10C14 11.3261 13.4732 12.5979 12.5355 13.5355C11.5978 14.4732 10.3261 15 9 15C7.67391 15 6.40214 14.4732 5.46446 13.5355C4.52678 12.5979 4 11.3261 4 10C4 8.67392 4.52678 7.40215 5.46446 6.46447C6.40214 5.52678 7.67391 5 9 5ZM9 7C8.20435 7 7.44128 7.31607 6.87868 7.87868C6.31607 8.44129 6 9.20435 6 10C6 10.7956 6.31607 11.5587 6.87868 12.1213C7.44128 12.6839 8.20435 13 9 13C9.79565 13 10.5587 12.6839 11.1213 12.1213C11.6839 11.5587 12 10.7956 12 10C12 9.20435 11.6839 8.44129 11.1213 7.87868C10.5587 7.31607 9.79565 7 9 7ZM9 0L11.39 3.42C10.65 3.15 9.84 3 9 3C8.16 3 7.35 3.15 6.61 3.42L9 0ZM0.339996 5L4.5 4.65C3.87935 5.17424 3.3519 5.79974 2.94 6.5C2.5 7.24 2.25 8 2.11 8.79L0.339996 5ZM0.359996 15L2.12 11.23C2.41395 12.8425 3.25444 14.3045 4.5 15.37L0.359996 15ZM17.65 5L15.88 8.79C15.5968 7.17076 14.7546 5.70217 13.5 4.64L17.65 5ZM17.64 15L13.5 15.36C14.09 14.85 14.62 14.22 15.04 13.5C15.46 12.77 15.73 12 15.87 11.21L17.64 15ZM9 20L6.59 16.56C7.33 16.83 8.14 17 9 17C9.82 17 10.63 16.83 11.37 16.56L9 20Z" fill="#F47356"/>
</svg>
