<svg width="20" height="22" viewBox="0 0 20 22" fill="none" xmlns="http://www.w3.org/2000/svg">
<path d="M15.75 3.09L13.22 5.03L14.13 8.09L11.5 6.28L8.87 8.09L9.78 5.03L7.25 3.09L10.44 3L11.5 0L12.56 3L15.75 3.09ZM19.25 10L17.61 11.25L18.2 13.23L16.5 12.06L14.8 13.23L15.39 11.25L13.75 10L15.81 9.95L16.5 8L17.19 9.95L19.25 10ZM16.97 14.95C17.8 14.87 18.69 16.05 18.16 16.8C17.84 17.25 17.5 17.67 17.08 18.07C13.17 22 6.84 22 2.94 18.07C-0.97 14.17 -0.97 7.83 2.94 3.93C3.34 3.53 3.76 3.17 4.21 2.85C4.96 2.32 6.14 3.21 6.06 4.04C5.79 6.9 6.75 9.87 8.95 12.06C9.98961 13.1052 11.2483 13.9066 12.6352 14.4064C14.0221 14.9062 15.5026 15.0918 16.97 14.95ZM15.33 16.97C12.3943 16.8012 9.62101 15.5675 7.53 13.5C5.36 11.31 4.2 8.5 4.04 5.68C1.23 8.82 1.34 13.64 4.35 16.66C7.37 19.67 12.19 19.78 15.33 16.97Z" fill="#5B7E9A"/>
</svg>
