<svg width="117" height="140" viewBox="0 0 117 140" fill="none" xmlns="http://www.w3.org/2000/svg">
<path d="M158.754 10.1963C176.594 9.17793 193.122 26.0529 194.334 47.1923C195.546 68.3316 181.221 85.4539 163.353 86.4571C145.485 87.4603 137.217 71.4319 136.005 50.2925C134.995 32.6764 137.88 17.9607 149.86 12.8652C152.663 11.5067 155.666 10.6057 158.754 10.1963Z" fill="#5B7E9A"/>
<path d="M90.8586 108.572C99.248 124.373 90.7545 146.416 72.0793 156.358C53.4041 166.3 31.8561 160.371 23.5521 144.616C15.248 128.861 26.2959 114.592 45.0138 104.673C60.6023 96.4078 75.1708 92.8948 84.8074 101.635C87.1782 103.614 89.2206 105.955 90.8586 108.572Z" fill="#5B7E9A"/>
<path d="M87.9615 105.474C82.1275 94.4758 62.727 93.3419 44.6293 102.942C26.5317 112.541 16.5901 129.24 22.4242 140.238C28.2583 151.237 47.6588 152.371 65.7564 142.771C83.8541 133.171 93.7956 116.473 87.9615 105.474Z" fill="#5B7E9A"/>
<path d="M87.4255 104.293C86.9693 105.456 82.7118 104.536 76.5 106.627C72.9245 107.777 69.5703 109.526 66.5803 111.799C64.9034 113.106 63.4041 114.627 62.1205 116.323C60.6878 118.152 59.2902 120.292 57.6858 122.613C56.0899 125.007 54.2811 127.251 52.2814 129.318C50.3905 131.259 48.3291 133.026 46.1219 134.597C42.3956 137.31 38.1932 139.299 33.7329 140.46C30.7121 141.302 27.545 141.481 24.4486 140.985C22.2828 140.56 21.1996 139.817 21.2642 139.286C21.4057 138.028 25.8152 137.842 31.7391 134.922C39.4707 131.014 46.0348 125.136 50.7686 117.881C52.2905 115.679 53.873 113.364 55.719 111.171C57.5638 108.957 59.7343 107.036 62.1564 105.474C66.13 102.919 70.6449 101.326 75.3422 100.822C78.4962 100.407 81.704 100.782 84.6773 101.913C85.1749 102.179 85.6156 102.414 85.9852 102.611C86.3044 102.812 86.6025 103.045 86.875 103.305C87.3555 103.671 87.5412 104.008 87.4255 104.293Z" fill="#5B7E9A"/>
<g opacity="0.3">
<path d="M87.4853 104.215C87.2436 104.086 87.254 104.238 86.9688 104.122C84.0269 103.162 80.9014 102.901 77.8411 103.361C75.7127 103.606 73.6183 104.087 71.5963 104.795C69.2725 105.614 67.0537 106.704 64.9861 108.044C62.6677 109.563 60.5915 111.423 58.8275 113.561C57.026 115.704 55.4653 118.013 53.9358 120.229C49.1052 127.643 42.3123 133.571 34.3129 137.354C31.0819 138.694 27.7367 139.739 24.3179 140.477C24.4601 140.553 24.6478 140.543 24.8345 140.57C27.8703 140.921 30.9458 140.663 33.8801 139.808C34.8156 139.595 35.7484 139.216 36.7589 138.897C37.7694 138.578 38.7401 138.128 39.7564 137.593C41.919 136.548 43.9813 135.307 45.9174 133.885C48.0653 132.321 50.077 130.578 51.9309 128.675L53.3559 127.134C53.8243 126.598 54.286 126.041 54.726 125.49C55.5992 124.367 56.4156 123.214 57.232 122.061C58.807 119.76 60.234 117.599 61.7112 115.721C63.1103 113.96 64.7428 112.398 66.5635 111.077C68.2364 109.861 70.0217 108.808 71.895 107.932C73.5258 107.143 75.2216 106.495 76.9637 105.998C79.5078 105.246 82.1426 104.845 84.7951 104.807C85.271 104.805 85.6625 104.722 86.0454 104.689C86.38 104.703 86.7151 104.692 87.0482 104.658C87.3165 104.6 87.3516 104.363 87.4853 104.215Z" fill="#2A3440"/>
</g>
<path d="M64.8333 105.113C64.2472 105.556 63.6269 105.952 62.9781 106.296C61.3264 107.395 59.7967 108.666 58.4151 110.09C56.3939 112.23 54.5532 114.535 52.9121 116.979C50.973 119.688 48.9657 122.8 46.4995 125.812C44.1619 128.672 41.3053 131.064 38.0799 132.862C35.4748 134.325 32.7396 135.544 29.9094 136.502C27.5225 137.347 25.5111 137.899 24.1669 138.296C23.4845 138.539 22.7796 138.714 22.0625 138.817C22.7151 138.512 23.3921 138.262 24.0864 138.07C25.4182 137.594 27.3606 136.932 29.72 136.036C32.4659 134.967 35.1207 133.678 37.6583 132.181C40.7784 130.394 43.5452 128.051 45.822 125.268C48.2435 122.305 50.2717 119.223 52.3036 116.545C54.0126 114.095 55.9384 111.803 58.0579 109.698C59.5074 108.289 61.1204 107.059 62.8625 106.034C63.483 105.654 64.1441 105.345 64.8333 105.113Z" fill="#263238"/>
<path d="M85.0066 104.719C85.0169 104.871 82.7298 104.947 79.1979 105.747C74.5854 106.777 70.2341 108.744 66.4146 111.528C61.9731 114.819 59.4099 119.314 57.2206 122.219C56.3762 123.41 55.4451 124.537 54.435 125.591C54.0932 126.002 53.6842 126.352 53.2253 126.626C53.1115 126.565 54.7404 124.95 56.725 121.881C58.7096 118.813 61.2879 114.289 65.9133 110.858C69.817 107.969 74.3256 106.003 79.0994 105.11C80.5307 104.833 81.9811 104.667 83.4379 104.612C83.9632 104.569 84.492 104.605 85.0066 104.719Z" fill="#263238"/>
<path d="M89.6511 111.965C89.6511 111.965 89.7022 112.211 89.7249 112.716C89.7364 113.433 89.6957 114.15 89.603 114.861C89.2454 117.48 88.4997 120.03 87.3907 122.429C85.7312 125.99 83.5493 129.282 80.9173 132.198C79.3857 133.938 77.7053 135.541 75.8953 136.988C73.9222 138.495 71.8559 139.875 69.7086 141.12C62.2088 145.562 53.8602 148.381 45.2026 149.394C42.576 149.664 39.926 149.605 37.3137 149.22C36.6048 149.117 35.9032 148.968 35.2133 148.775C34.9639 148.736 34.7225 148.657 34.4987 148.54C34.4987 148.54 35.5328 148.69 37.3583 148.897C39.9477 149.153 42.5576 149.119 45.1393 148.794C53.6805 147.646 61.9058 144.801 69.3306 140.426C76.9009 136.275 83.0306 129.922 86.9064 122.207C88.0381 119.865 88.8532 117.383 89.33 114.825C89.5949 112.994 89.5791 111.963 89.6511 111.965Z" fill="#263238"/>
<g opacity="0.2">
<path d="M65.857 100.491C65.538 100.261 65.146 100.156 64.7548 100.195C54.4974 99.9373 44.5082 103.488 36.7148 110.162C30.2964 115.686 24.3098 123.14 22.9458 131.069C22.7987 131.63 22.8154 132.221 22.9939 132.772C23.1725 133.323 23.5054 133.812 23.9532 134.179C24.401 134.547 24.9448 134.779 25.5203 134.847C26.0958 134.915 26.6787 134.816 27.1999 134.563C32.4429 132.85 39.9146 129.732 43.8635 125.447C48.2286 120.69 50.4965 114.284 54.8436 109.389C57.4385 106.498 60.6791 104.26 64.302 102.857C64.8687 102.7 65.3886 102.407 65.8169 102.003C66.0005 101.796 66.1052 101.531 66.1125 101.254C66.1199 100.978 66.0294 100.707 65.857 100.491Z" fill="#5B7E9A"/>
</g>
<g opacity="0.2">
<path d="M40.5945 144.031C40.9216 144.279 41.3311 144.393 41.7394 144.35C52.4412 144.613 62.8646 140.922 71.0155 133.983C77.7354 128.235 83.9761 120.443 85.4426 112.184C85.5746 111.603 85.5425 110.996 85.3499 110.431C85.1574 109.867 84.8119 109.366 84.352 108.987C83.892 108.607 83.3357 108.362 82.7448 108.28C82.154 108.197 81.5519 108.28 81.0056 108.52C75.5228 110.306 67.7164 113.537 63.5826 117.998C58.9815 122.958 56.6339 129.65 52.1028 134.684C49.3863 137.695 45.9976 140.023 42.2122 141.479C41.5999 141.66 41.0416 141.989 40.5864 142.437C40.3974 142.66 40.2944 142.943 40.2959 143.236C40.2974 143.528 40.4033 143.81 40.5945 144.031Z" fill="white"/>
</g>
<path d="M84.477 115.158C84.275 115.843 83.9963 116.503 83.6462 117.125C83.2967 117.888 82.9014 118.628 82.4627 119.343C81.9999 120.21 81.4765 121.191 80.7218 122.194C79.1009 124.595 77.283 126.857 75.287 128.956C70.4625 134.157 64.6637 138.36 58.2197 141.327C55.5786 142.531 52.8424 143.515 50.039 144.267C48.8474 144.618 47.7166 144.854 46.7829 144.995C45.967 145.181 45.14 145.313 44.307 145.391C43.6048 145.523 42.8902 145.576 42.1762 145.551C42.1374 145.384 45.1734 145.068 49.8666 143.7C52.6085 142.891 55.286 141.878 57.8767 140.669C61.0304 139.157 64.053 137.386 66.913 135.373C69.7339 133.315 72.3752 131.022 74.8084 128.518C76.76 126.437 78.5562 124.215 80.1825 121.87C83.0735 117.788 84.3348 115.082 84.477 115.158Z" fill="white"/>
</svg>
