<svg width="18" height="18" viewBox="0 0 18 18" fill="none" xmlns="http://www.w3.org/2000/svg">
<path d="M16 1.75343e-07L2 2.19178e-08C0.89 9.75343e-09 -9.75343e-09 0.89 -2.19178e-08 2L-6.57535e-08 6L2 6L2 2L16 2L16 16L2 16L2 12L-1.31507e-07 12L-1.75343e-07 16C-1.81156e-07 16.5304 0.210713 17.0391 0.585786 17.4142C0.960859 17.7893 1.46957 18 2 18L16 18C16.5304 18 17.0391 17.7893 17.4142 17.4142C17.7893 17.0391 18 16.5304 18 16L18 2C18 1.46957 17.7893 0.960859 17.4142 0.585787C17.0391 0.210714 16.5304 1.81156e-07 16 1.75343e-07ZM7.08 12.58L8.5 14L13.5 9L8.5 4L7.08 5.41L9.67 8L-8.76713e-08 8L-1.09589e-07 10L9.67 10L7.08 12.58Z" fill="white"/>
</svg>
