<svg width="21" height="20" viewBox="0 0 21 20" fill="none" xmlns="http://www.w3.org/2000/svg">
<path d="M16.5 16C17.0304 16 17.5391 16.2107 17.9142 16.5858C18.2893 16.9609 18.5 17.4696 18.5 18C18.5 18.5304 18.2893 19.0391 17.9142 19.4142C17.5391 19.7893 17.0304 20 16.5 20C15.9696 20 15.4609 19.7893 15.0858 19.4142C14.7107 19.0391 14.5 18.5304 14.5 18C14.5 16.89 15.39 16 16.5 16ZM0.5 0H3.77L4.71 2H19.5C19.7652 2 20.0196 2.10536 20.2071 2.29289C20.3946 2.48043 20.5 2.73478 20.5 3C20.5 3.17 20.45 3.34 20.38 3.5L16.8 9.97C16.46 10.58 15.8 11 15.05 11H7.6L6.7 12.63L6.67 12.75C6.67 12.8163 6.69634 12.8799 6.74322 12.9268C6.79011 12.9737 6.8537 13 6.92 13H18.5V15H6.5C5.96957 15 5.46086 14.7893 5.08579 14.4142C4.71071 14.0391 4.5 13.5304 4.5 13C4.5 12.65 4.59 12.32 4.74 12.04L6.1 9.59L2.5 2H0.5V0ZM6.5 16C7.03043 16 7.53914 16.2107 7.91421 16.5858C8.28929 16.9609 8.5 17.4696 8.5 18C8.5 18.5304 8.28929 19.0391 7.91421 19.4142C7.53914 19.7893 7.03043 20 6.5 20C5.96957 20 5.46086 19.7893 5.08579 19.4142C4.71071 19.0391 4.5 18.5304 4.5 18C4.5 16.89 5.39 16 6.5 16ZM15.5 9L18.28 4H5.64L8 9H15.5Z" fill="#5F6366"/>
</svg>
