<svg width="170" height="33" viewBox="0 0 170 33" fill="none" xmlns="http://www.w3.org/2000/svg">
<path d="M0.843122 33V17.4C0.843122 14.68 1.81646 12.3467 3.76312 10.4C5.70979 8.45333 8.04312 7.48 10.7631 7.48C13.5098 7.48 15.8431 8.45333 17.7631 10.4C19.7098 12.32 20.6831 14.6533 20.6831 17.4V33H16.4431V17.4C16.4431 15.8533 15.8831 14.52 14.7631 13.4C13.6431 12.28 12.3098 11.72 10.7631 11.72C9.21646 11.72 7.88312 12.28 6.76312 13.4C5.64312 14.52 5.08312 15.8533 5.08312 17.4V33H0.843122ZM26.8575 11.24C29.3642 8.73333 32.3775 7.48 35.8975 7.48C39.4175 7.48 42.4175 8.73333 44.8975 11.24C47.4042 13.72 48.6575 16.72 48.6575 20.24C48.6575 20.9067 48.5908 21.6133 48.4575 22.36H27.6575C28.1375 24.2267 29.1375 25.76 30.6575 26.96C32.1775 28.1333 33.9242 28.72 35.8975 28.72C38.3775 28.72 40.4442 27.8267 42.0975 26.04H47.2575C46.1908 28.1467 44.6308 29.84 42.5775 31.12C40.5508 32.3733 38.3242 33 35.8975 33C32.3775 33 29.3642 31.76 26.8575 29.28C24.3775 26.7733 23.1375 23.76 23.1375 20.24C23.1375 16.72 24.3775 13.72 26.8575 11.24ZM27.6575 18.12H44.1375C43.6842 16.2533 42.6842 14.72 41.1375 13.52C39.6175 12.32 37.8708 11.72 35.8975 11.72C33.9242 11.72 32.1642 12.32 30.6175 13.52C29.0975 14.72 28.1108 16.2533 27.6575 18.12ZM53.4469 11.24C55.9535 8.73333 58.9669 7.48 62.4869 7.48C66.0069 7.48 69.0069 8.73333 71.4869 11.24C73.9935 13.72 75.2469 16.72 75.2469 20.24C75.2469 23.76 73.9935 26.7733 71.4869 29.28C69.0069 31.76 66.0069 33 62.4869 33C58.9669 33 55.9535 31.76 53.4469 29.28C50.9669 26.7733 49.7269 23.76 49.7269 20.24C49.7269 16.72 50.9669 13.72 53.4469 11.24ZM68.4869 14.24C66.8335 12.56 64.8335 11.72 62.4869 11.72C60.1402 11.72 58.1269 12.56 56.4469 14.24C54.7935 15.8933 53.9669 17.8933 53.9669 20.24C53.9669 22.5867 54.7935 24.5867 56.4469 26.24C58.1269 27.8933 60.1402 28.72 62.4869 28.72C64.8335 28.72 66.8335 27.8933 68.4869 26.24C70.1669 24.5867 71.0069 22.5867 71.0069 20.24C71.0069 17.8933 70.1669 15.8933 68.4869 14.24Z" fill="white"/>
<path d="M89.6278 7.48C92.0011 7.48 94.1878 8.09333 96.1878 9.32C98.2145 10.52 99.7745 12.12 100.868 14.12H95.5878C93.9345 12.52 91.9478 11.72 89.6278 11.72C87.2811 11.72 85.2811 12.56 83.6278 14.24C81.9745 15.8933 81.1478 17.8933 81.1478 20.24C81.1478 22.5867 81.9745 24.5867 83.6278 26.24C85.2811 27.8933 87.2811 28.72 89.6278 28.72C91.0145 28.72 92.3078 28.4133 93.5078 27.8C94.7078 27.1867 95.6945 26.3467 96.4678 25.28H101.348C100.361 27.5733 98.8011 29.44 96.6678 30.88C94.5611 32.2933 92.2145 33 89.6278 33C86.1078 33 83.1078 31.76 80.6278 29.28C78.1478 26.7733 76.9078 23.76 76.9078 20.24C76.9078 16.72 78.1478 13.72 80.6278 11.24C83.1078 8.73333 86.1078 7.48 89.6278 7.48ZM128.044 20.24V33H123.804V29.72C121.404 31.9067 118.564 33 115.284 33C111.764 33 108.751 31.76 106.244 29.28C103.764 26.7733 102.524 23.76 102.524 20.24C102.524 16.72 103.764 13.72 106.244 11.24C108.751 8.73333 111.764 7.48 115.284 7.48C118.804 7.48 121.804 8.73333 124.284 11.24C126.791 13.72 128.044 16.72 128.044 20.24ZM115.284 11.72C112.938 11.72 110.938 12.56 109.284 14.24C107.631 15.8933 106.804 17.8933 106.804 20.24C106.804 22.5867 107.631 24.5867 109.284 26.24C110.938 27.8933 112.938 28.72 115.284 28.72C117.631 28.72 119.631 27.8933 121.284 26.24C122.964 24.5867 123.804 22.5867 123.804 20.24C123.804 17.8667 122.978 15.8533 121.324 14.2C119.671 12.5467 117.658 11.72 115.284 11.72ZM133.086 8.88V8.92C133.086 6.57333 133.912 4.57333 135.566 2.92C137.246 1.24 139.259 0.399998 141.606 0.399998H143.006V4.64H141.606C140.432 4.64 139.432 5.05333 138.606 5.88C137.779 6.70667 137.366 7.70667 137.366 8.88H143.006V13.12H137.366V33H133.086V13.12H130.246V8.88H133.086ZM147.358 11.24C149.864 8.73333 152.878 7.48 156.398 7.48C159.918 7.48 162.918 8.73333 165.398 11.24C167.904 13.72 169.158 16.72 169.158 20.24C169.158 20.9067 169.091 21.6133 168.958 22.36H148.158C148.638 24.2267 149.638 25.76 151.158 26.96C152.678 28.1333 154.424 28.72 156.398 28.72C158.878 28.72 160.944 27.8267 162.598 26.04H167.758C166.691 28.1467 165.131 29.84 163.078 31.12C161.051 32.3733 158.824 33 156.398 33C152.878 33 149.864 31.76 147.358 29.28C144.878 26.7733 143.638 23.76 143.638 20.24C143.638 16.72 144.878 13.72 147.358 11.24ZM148.158 18.12H164.638C164.184 16.2533 163.184 14.72 161.638 13.52C160.118 12.32 158.371 11.72 156.398 11.72C154.424 11.72 152.664 12.32 151.118 13.52C149.598 14.72 148.611 16.2533 148.158 18.12Z" fill="#F47356"/>
</svg>
