<svg width="171" height="275" viewBox="0 0 171 275" fill="none" xmlns="http://www.w3.org/2000/svg">
<path d="M138.754 113.196C156.594 112.178 173.122 129.053 174.334 150.192C175.546 171.332 161.221 188.454 143.353 189.457C125.485 190.46 117.217 174.432 116.005 153.293C114.995 135.676 117.88 120.961 129.86 115.865C132.663 114.507 135.666 113.606 138.754 113.196Z" fill="#5B7E9A" fill-opacity="0.2"/>
<path d="M159.34 150.23C158.17 129.778 147.145 113.774 134.716 114.485C122.286 115.196 113.158 132.352 114.328 152.805C115.497 173.257 126.522 189.261 138.952 188.55C151.381 187.839 160.509 170.683 159.34 150.23Z" fill="white"/>
<path d="M133.378 114.51C134.226 115.419 131.625 118.889 130.94 125.409C130.467 129.158 130.644 132.959 131.463 136.647C131.959 138.727 132.733 140.731 133.763 142.605C134.833 144.674 136.195 146.844 137.631 149.253C139.138 151.706 140.425 154.288 141.477 156.968C142.445 159.499 143.191 162.109 143.706 164.769C144.61 169.289 144.662 173.938 143.861 178.477C143.349 181.562 142.174 184.5 140.417 187.087C139.13 188.884 138.009 189.546 137.564 189.217C136.455 188.625 138.151 184.489 137.966 177.888C137.651 169.234 135.055 160.816 130.439 153.489C128.968 151.127 127.623 148.69 126.409 146.187C125.167 143.6 124.331 140.838 123.93 137.997C123.276 133.317 123.713 128.55 125.208 124.068C126.143 121.028 127.822 118.27 130.093 116.044C130.46 115.711 130.846 115.399 131.249 115.109C131.569 114.905 131.907 114.73 132.258 114.588C132.809 114.285 133.182 114.259 133.378 114.51Z" fill="#5B7E9A" fill-opacity="0.2"/>
<g opacity="0.3">
<path d="M133.315 114.421C133.194 114.649 133.209 114.62 133.072 114.876C130.964 117.141 129.419 119.871 128.564 122.845C127.91 124.869 127.491 126.963 127.317 129.083C127.091 131.549 127.15 134.032 127.495 136.484C127.906 139.223 128.727 141.884 129.931 144.378C131.163 146.861 132.569 149.292 133.942 151.614C138.671 159.094 141.227 167.743 141.323 176.593C141.186 180.086 140.744 183.559 140.002 186.975L140.245 186.52C141.834 183.913 142.884 181.014 143.333 177.995C143.532 177.041 143.58 176.026 143.702 174.977C143.823 173.928 143.824 172.832 143.767 171.706C143.725 169.305 143.46 166.914 142.976 164.563C142.45 161.959 141.705 159.405 140.75 156.927L139.95 155.003C139.658 154.353 139.343 153.711 139.029 153.068C138.37 151.803 137.697 150.531 136.964 149.373C135.543 146.97 134.16 144.771 133.07 142.637C132.039 140.676 131.275 138.585 130.799 136.421C130.373 134.418 130.14 132.379 130.103 130.332C130.074 128.519 130.192 126.707 130.456 124.914C130.851 122.292 131.601 119.737 132.683 117.317C132.903 116.905 132.971 116.503 133.111 116.139C133.25 115.775 133.445 115.513 133.488 115.226C133.532 114.939 133.396 114.611 133.315 114.421Z" fill="#2A3440"/>
</g>
<path d="M124.684 135.386C124.844 136.1 124.945 136.826 124.987 137.557C125.297 139.518 125.814 141.44 126.529 143.293C127.623 146.029 128.937 148.672 130.457 151.197C132.132 154.081 134.104 157.198 135.827 160.711C137.443 164.048 138.409 167.663 138.672 171.361C138.915 174.342 138.881 177.338 138.572 180.312C138.339 182.836 137.983 184.838 137.822 186.268C137.752 187.005 137.597 187.731 137.361 188.433C137.341 187.699 137.385 186.964 137.492 186.238C137.608 184.821 137.843 182.773 137.996 180.261C138.202 177.319 138.172 174.365 137.907 171.428C137.576 167.854 136.601 164.37 135.03 161.144C133.348 157.689 131.39 154.581 129.76 151.647C128.246 149.073 126.962 146.371 125.923 143.572C125.252 141.664 124.813 139.682 124.617 137.669C124.547 136.908 124.569 136.142 124.684 135.386Z" fill="#263238"/>
<path d="M132.73 116.886C132.873 116.962 132.003 119.036 131.252 122.599C130.267 127.225 130.241 132.003 131.175 136.64C132.315 142.033 135.362 146.18 137.113 149.47C137.841 150.734 138.476 152.05 139.012 153.406C139.239 153.891 139.388 154.408 139.454 154.939C139.324 154.979 138.551 152.868 136.607 149.767C134.664 146.666 131.611 142.462 130.42 136.821C129.461 132.082 129.576 127.188 130.757 122.499C131.113 121.086 131.566 119.698 132.115 118.347C132.252 117.834 132.459 117.342 132.73 116.886Z" fill="#263238"/>
<path d="M141.262 115.685C141.508 115.733 141.746 115.817 141.969 115.934C142.627 116.228 143.263 116.567 143.874 116.951C146.104 118.368 148.111 120.11 149.828 122.119C152.372 125.112 154.453 128.469 156 132.08C156.937 134.201 157.696 136.396 158.27 138.642C158.811 141.066 159.203 143.519 159.444 145.99C160.328 154.668 159.383 163.434 156.67 171.724C155.825 174.23 154.667 176.619 153.223 178.834C152.843 179.443 152.413 180.02 151.937 180.559C151.794 180.757 151.63 180.938 151.447 181.101C151.447 181.101 151.925 180.205 152.954 178.654C154.263 176.404 155.322 174.017 156.113 171.536C158.646 163.286 159.499 154.612 158.622 146.026C158.017 137.417 154.802 129.197 149.408 122.461C147.756 120.453 145.842 118.676 143.716 117.178C142.171 116.171 141.224 115.756 141.262 115.685Z" fill="#263238"/>
<g opacity="0.2">
<path d="M120.911 132.532C120.568 132.722 120.306 133.03 120.174 133.399C115.673 142.618 114.735 153.175 117.541 163.044C119.884 171.18 124.192 179.707 130.796 184.272C131.244 184.635 131.787 184.863 132.36 184.929C132.933 184.995 133.513 184.895 134.032 184.642C134.55 184.39 134.986 183.994 135.287 183.502C135.589 183.01 135.744 182.443 135.733 181.866C136.362 176.375 136.642 168.287 134.421 162.901C131.934 156.916 127.035 152.201 124.453 146.258C122.909 142.696 122.224 138.82 122.454 134.945C122.541 134.364 122.495 133.771 122.32 133.211C122.209 132.945 122.004 132.728 121.745 132.603C121.485 132.478 121.188 132.453 120.911 132.532Z" fill="white"/>
</g>
<g opacity="0.2">
<path d="M149.944 173.65C150.303 173.455 150.575 173.129 150.703 172.741C155.431 163.123 156.442 152.1 153.544 141.783C151.103 133.283 146.64 124.363 139.809 119.604C139.337 119.241 138.772 119.016 138.179 118.955C137.586 118.893 136.988 118.998 136.45 119.256C135.913 119.515 135.458 119.917 135.136 120.419C134.813 120.92 134.637 121.501 134.625 122.098C133.961 127.825 133.674 136.201 135.966 141.899C138.554 148.139 143.656 153.09 146.339 159.289C147.94 163.018 148.643 167.071 148.389 171.122C148.297 171.725 148.35 172.342 148.543 172.921C148.65 173.19 148.851 173.412 149.108 173.546C149.365 173.68 149.662 173.717 149.944 173.65Z" fill="white"/>
</g>
<path d="M141.975 121.673C142.516 122.138 143.001 122.667 143.418 123.247C143.968 123.878 144.48 124.542 144.951 125.234C145.614 126.137 146.23 127.075 146.794 128.044C148.325 130.501 149.648 133.083 150.748 135.761C152.067 139.054 153.086 142.459 153.794 145.934C154.44 149.424 154.776 152.965 154.796 156.514C154.782 159.408 154.525 162.294 154.026 165.144C153.85 166.365 153.547 167.446 153.319 168.42C153.145 169.239 152.922 170.047 152.65 170.839C152.466 171.532 152.217 172.206 151.904 172.852C151.748 172.768 152.711 169.903 153.43 165.064C153.835 162.237 154.027 159.384 154.003 156.529C153.961 149.496 152.627 142.531 150.065 135.981C149.01 133.325 147.758 130.752 146.319 128.283C143.885 124.117 141.842 121.785 141.975 121.673Z" fill="white"/>
<path d="M70.8587 211.572C79.2481 227.373 70.7546 249.416 52.0794 259.358C33.4042 269.3 11.8562 263.371 3.55212 247.616C-4.75194 231.861 6.29599 217.592 25.0138 207.673C40.6024 199.408 55.1709 195.895 64.8074 204.635C67.1783 206.614 69.2207 208.955 70.8587 211.572Z" fill="#5B7E9A" fill-opacity="0.2"/>
<path d="M67.9615 208.474C62.1274 197.476 42.7269 196.342 24.6293 205.942C6.53164 215.541 -3.40995 232.24 2.42413 243.238C8.25821 254.237 27.6587 255.371 45.7564 245.771C63.854 236.171 73.7956 219.473 67.9615 208.474Z" fill="#5B7E9A" fill-opacity="0.2"/>
<path d="M67.4254 207.293C66.9692 208.456 62.7117 207.536 56.4999 209.627C52.9244 210.777 49.5702 212.526 46.5803 214.799C44.9033 216.106 43.4041 217.627 42.1204 219.323C40.6878 221.152 39.2901 223.292 37.6858 225.613C36.0899 228.007 34.281 230.251 32.2813 232.318C30.3905 234.259 28.329 236.026 26.1218 237.597C22.3955 240.31 18.1931 242.299 13.7329 243.46C10.712 244.302 7.54495 244.481 4.4485 243.985C2.28275 243.56 1.19953 242.817 1.26412 242.286C1.40566 241.028 5.81513 240.842 11.739 237.922C19.4707 234.014 26.0347 228.136 30.7685 220.881C32.2904 218.679 33.8729 216.364 35.7189 214.171C37.5637 211.957 39.7343 210.036 42.1563 208.474C46.1299 205.919 50.6448 204.326 55.3421 203.822C58.4962 203.407 61.7039 203.782 64.6773 204.913C65.1748 205.179 65.6155 205.414 65.9851 205.611C66.3043 205.812 66.6025 206.045 66.875 206.305C67.3555 206.671 67.5412 207.008 67.4254 207.293Z" fill="#5B7E9A" fill-opacity="0.2"/>
<g opacity="0.3">
<path d="M67.4854 207.215C67.2437 207.086 67.2541 207.238 66.9688 207.122C64.027 206.162 60.9015 205.901 57.8412 206.361C55.7128 206.606 53.6183 207.087 51.5963 207.795C49.2726 208.614 47.0537 209.704 44.9861 211.044C42.6678 212.563 40.5916 214.423 38.8275 216.561C37.0261 218.704 35.4653 221.013 33.9359 223.229C29.1052 230.643 22.3123 236.571 14.313 240.354C11.0819 241.694 7.73672 242.739 4.31799 243.477C4.46015 243.553 4.64784 243.543 4.83456 243.57C7.87038 243.922 10.9458 243.663 13.8801 242.808C14.8157 242.595 15.7485 242.216 16.759 241.897C17.7695 241.578 18.7402 241.128 19.7564 240.593C21.919 239.548 23.9813 238.307 25.9174 236.885C28.0653 235.321 30.077 233.578 31.931 231.675L33.356 230.134C33.8244 229.598 34.2861 229.041 34.726 228.49C35.5993 227.367 36.4157 226.214 37.2321 225.061C38.807 222.76 40.2341 220.599 41.7113 218.721C43.1104 216.96 44.7428 215.398 46.5636 214.077C48.2364 212.861 50.0217 211.808 51.8951 210.932C53.5259 210.143 55.2217 209.495 56.9637 208.998C59.5078 208.246 62.1427 207.845 64.7952 207.807C65.271 207.805 65.6625 207.722 66.0455 207.689C66.3801 207.703 66.7152 207.692 67.0483 207.658C67.3166 207.6 67.3517 207.363 67.4854 207.215Z" fill="#2A3440"/>
</g>
<path d="M44.8333 208.113C44.2472 208.556 43.6268 208.952 42.9781 209.296C41.3264 210.395 39.7967 211.666 38.4151 213.09C36.3938 215.23 34.5532 217.535 32.912 219.979C30.973 222.689 28.9656 225.8 26.4995 228.812C24.1619 231.672 21.3053 234.064 18.0799 235.862C15.4747 237.326 12.7395 238.544 9.90941 239.502C7.5225 240.347 5.51103 240.899 4.16687 241.296C3.48451 241.539 2.77955 241.714 2.0625 241.817C2.71508 241.512 3.39207 241.262 4.08635 241.07C5.41821 240.594 7.36053 239.932 9.71996 239.036C12.4659 237.967 15.1207 236.678 17.6582 235.181C20.7784 233.394 23.5452 231.051 25.8219 228.268C28.2435 225.305 30.2717 222.223 32.3036 219.545C34.0126 217.095 35.9384 214.803 38.0578 212.698C39.5074 211.289 41.1204 210.059 42.8625 209.034C43.483 208.654 44.1441 208.345 44.8333 208.113Z" fill="#263238"/>
<path d="M65.0066 207.719C65.017 207.871 62.7298 207.947 59.1979 208.747C54.5854 209.777 50.2341 211.744 46.4146 214.528C41.9731 217.819 39.41 222.314 37.2206 225.219C36.3762 226.41 35.4451 227.537 34.435 228.591C34.0932 229.002 33.6842 229.352 33.2253 229.626C33.1116 229.565 34.7404 227.95 36.725 224.881C38.7096 221.813 41.288 217.289 45.9134 213.858C49.817 210.969 54.3257 209.003 59.0995 208.11C60.5308 207.833 61.9812 207.667 63.4379 207.612C63.9632 207.569 64.492 207.605 65.0066 207.719Z" fill="#263238"/>
<path d="M69.651 214.965C69.651 214.965 69.7022 215.211 69.7248 215.716C69.7363 216.433 69.6956 217.15 69.6029 217.861C69.2453 220.48 68.4997 223.03 67.3907 225.429C65.7311 228.99 63.5492 232.282 60.9173 235.198C59.3856 236.938 57.7053 238.541 55.8953 239.988C53.9222 241.495 51.8558 242.875 49.7086 244.12C42.2087 248.562 33.8601 251.381 25.2026 252.394C22.5759 252.664 19.9259 252.605 17.3136 252.22C16.6047 252.117 15.9032 251.968 15.2133 251.775C14.9639 251.736 14.7225 251.657 14.4987 251.54C14.4987 251.54 15.5327 251.69 17.3582 251.897C19.9476 252.153 22.5576 252.119 25.1392 251.794C33.6805 250.646 41.9057 247.801 49.3305 243.426C56.9009 239.275 63.0305 232.922 66.9064 225.207C68.0381 222.865 68.8531 220.383 69.33 217.825C69.5949 215.994 69.579 214.963 69.651 214.965Z" fill="#263238"/>
<g opacity="0.2">
<path d="M45.8571 203.491C45.5381 203.261 45.146 203.156 44.7548 203.195C34.4975 202.937 24.5083 206.488 16.7148 213.162C10.2964 218.686 4.30985 226.14 2.94582 234.069C2.79869 234.63 2.81539 235.221 2.99395 235.772C3.1725 236.323 3.50542 236.812 3.95321 237.179C4.40101 237.547 4.94488 237.779 5.52034 237.847C6.0958 237.915 6.6787 237.816 7.19989 237.563C12.4429 235.85 19.9147 232.732 23.8635 228.447C28.2286 223.69 30.4965 217.284 34.8437 212.389C37.4385 209.498 40.6791 207.26 44.302 205.857C44.8687 205.7 45.3887 205.407 45.8169 205.004C46.0005 204.796 46.1052 204.531 46.1125 204.254C46.1199 203.978 46.0294 203.707 45.8571 203.491Z" fill="#5B7E9A" fill-opacity="0.2"/>
</g>
<g opacity="0.2">
<path d="M20.5945 247.031C20.9216 247.279 21.3311 247.393 21.7394 247.35C32.4412 247.613 42.8646 243.922 51.0155 236.983C57.7353 231.235 63.976 223.443 65.4425 215.184C65.5745 214.603 65.5425 213.996 65.3499 213.431C65.1574 212.867 64.8119 212.366 64.3519 211.987C63.892 211.607 63.3356 211.362 62.7448 211.28C62.154 211.197 61.5519 211.28 61.0056 211.52C55.5227 213.306 47.7163 216.537 43.5826 220.998C38.9814 225.958 36.6339 232.65 32.1028 237.684C29.3862 240.695 25.9976 243.023 22.2122 244.479C21.5999 244.66 21.0416 244.989 20.5863 245.437C20.3974 245.66 20.2944 245.943 20.2958 246.236C20.2973 246.528 20.4033 246.81 20.5945 247.031Z" fill="white"/>
</g>
<path d="M64.477 218.158C64.2749 218.843 63.9962 219.503 63.6462 220.125C63.2966 220.888 62.9014 221.628 62.4627 222.343C61.9999 223.21 61.4765 224.191 60.7217 225.195C59.1008 227.595 57.283 229.857 55.2869 231.956C50.4624 237.157 44.6637 241.36 38.2197 244.327C35.5786 245.531 32.8423 246.515 30.0389 247.267C28.8474 247.618 27.7166 247.854 26.7829 247.995C25.967 248.181 25.14 248.313 24.307 248.391C23.6048 248.523 22.8902 248.576 22.1762 248.551C22.1374 248.384 25.1734 248.068 29.8666 246.7C32.6085 245.891 35.286 244.878 37.8767 243.669C41.0304 242.157 44.0529 240.386 46.913 238.373C49.7339 236.315 52.3752 234.022 54.8084 231.518C56.76 229.437 58.5562 227.215 60.1825 224.87C63.0735 220.788 64.3348 218.082 64.477 218.158Z" fill="white"/>
<path d="M142.842 14.6678C152.164 23.8615 151.157 41.1141 140.251 52.2069C129.346 63.2998 113.053 63.8835 103.74 54.6396C94.4263 45.3957 99.0283 33.0757 109.911 22.0254C118.966 12.7937 128.379 7.13258 137.032 11.111C139.148 11.9758 141.11 13.1769 142.842 14.6678Z" fill="#5B7E9A" fill-opacity="0.2"/>
<path d="M140.17 13.133C133.666 6.73759 119.87 10.2209 109.357 20.9132C98.8433 31.6056 95.5932 45.4579 102.097 51.8533C108.602 58.2487 122.397 54.7654 132.911 44.073C143.424 33.3807 146.674 19.5284 140.17 13.133Z" fill="white"/>
<path d="M139.541 12.468C139.51 13.1087 136.229 13.1297 132.104 15.8964C129.71 17.4517 127.62 19.4312 125.937 21.7374C124.047 24.2175 123.102 27.53 121.907 31.5136C121.331 33.4913 120.586 35.4155 119.678 37.2646C118.825 38.9956 117.816 40.6457 116.664 42.1946C114.752 44.8696 112.37 47.1756 109.635 49.0004C107.792 50.2387 105.728 51.1091 103.555 51.5637C102.019 51.8401 101.137 51.6797 101.085 51.4333C100.937 50.7877 104.117 49.9279 107.852 46.6246C112.665 42.2194 116.144 36.5524 117.896 30.268C118.48 28.3876 119.051 26.4276 119.828 24.5596C120.572 22.6904 121.601 20.9474 122.878 19.3926C124.991 16.7991 127.654 14.7079 130.675 13.2705C132.691 12.28 134.906 11.7573 137.153 11.7413C138.687 11.7749 139.519 12.2007 139.541 12.468Z" fill="#5B7E9A" fill-opacity="0.2"/>
<g opacity="0.3">
<path d="M139.579 12.3969C139.385 12.3845 139.433 12.4651 139.203 12.4518C136.937 12.4263 134.696 12.9321 132.661 13.9288C131.24 14.5701 129.898 15.3738 128.662 16.324C127.217 17.4061 125.906 18.6563 124.757 20.0481C123.479 21.622 122.443 23.3779 121.684 25.2577C120.938 27.1355 120.288 29.0503 119.737 30.9946C118.005 37.2419 114.565 42.8824 109.803 47.282C107.847 48.9311 105.748 50.4024 103.53 51.6784L103.914 51.6093C106.108 51.1977 108.194 50.3404 110.043 49.0905C110.659 48.7248 111.233 48.2643 111.858 47.8123C112.483 47.3603 113.081 46.8211 113.666 46.2384C114.951 45.0361 116.121 43.7156 117.159 42.2943C118.315 40.7356 119.329 39.0761 120.188 37.3358L120.947 35.9142L121.563 34.4168C121.921 33.4387 122.243 32.4596 122.55 31.473C123.149 29.5281 123.666 27.7036 124.287 26.0621C124.844 24.5421 125.61 23.1068 126.563 21.7973C127.43 20.574 128.424 19.4455 129.528 18.4303C131.909 16.1815 134.738 14.4609 137.83 13.3813C138.157 13.2818 138.421 13.1302 138.69 13.0365C138.959 12.9427 139.185 12.8622 139.367 12.7949C139.549 12.7276 139.511 12.5248 139.579 12.3969Z" fill="#2A3440"/>
</g>
<path d="M123.933 17.9284C122.667 19.4521 121.561 21.1015 120.631 22.8508C119.688 24.8031 118.906 26.8292 118.293 28.9089C117.546 31.2319 116.828 33.844 115.77 36.5119C114.764 39.0371 113.289 41.3486 111.422 43.324C109.911 44.9167 108.261 46.3711 106.491 47.6697C105.022 48.712 103.73 49.5931 102.864 50.154C102.424 50.4771 101.944 50.7429 101.437 50.9452C101.324 50.8845 103.235 49.4935 106.122 47.1985C109.99 44.3748 113.047 40.5825 114.985 36.2027C116.02 33.6134 116.752 31.0089 117.535 28.6869C118.203 26.5966 119.052 24.5688 120.074 22.6269C120.783 21.3207 121.655 20.1107 122.671 19.0267C123.03 18.5951 123.456 18.2243 123.933 17.9284Z" fill="#263238"/>
<path d="M137.898 13.2533C137.952 13.3917 136.394 13.9847 134.101 15.3367C131.125 17.0981 128.537 19.4449 126.493 22.2352C124.659 25.1612 123.283 28.3507 122.414 31.6929C122.06 33.1163 121.416 34.4514 120.522 35.6146C120.423 35.5615 121.139 34.1172 121.849 31.5193C122.574 28.0498 123.915 24.7382 125.807 21.7413C127.913 18.8729 130.642 16.52 133.79 14.8599C135.06 14.0991 136.449 13.556 137.898 13.2533Z" fill="#263238"/>
<path d="M142.75 17.3039C143.077 17.9317 143.295 18.6102 143.396 19.3107C143.741 21.2274 143.798 23.1847 143.566 25.1183C143.179 27.9732 142.372 30.7551 141.17 33.3735C140.497 34.9408 139.692 36.4483 138.765 37.8799C137.726 39.3759 136.587 40.8003 135.357 42.1435C131.079 46.9102 125.841 50.7188 119.987 53.3196C118.203 54.0855 116.328 54.6196 114.408 54.9088C113.89 54.9936 113.366 55.0375 112.841 55.0401C112.487 55.0524 112.293 55.04 112.294 55.004C114.862 54.5732 117.367 53.8236 119.749 52.7727C125.434 50.0649 130.526 46.258 134.731 41.5718C139.089 37.0236 141.967 31.2615 142.984 25.0451C143.288 23.1829 143.341 21.2883 143.141 19.4121C142.903 18.0433 142.67 17.3163 142.75 17.3039Z" fill="#263238"/>
<g opacity="0.2">
<path d="M123.605 14.539C123.328 14.4447 123.026 14.46 122.76 14.5814C115.547 16.667 109.36 21.348 105.392 27.7229C102.137 32.9998 99.621 39.5289 100.396 45.367C100.418 45.7907 100.56 46.1994 100.807 46.5447C101.053 46.8901 101.394 47.1577 101.787 47.3159C102.181 47.4742 102.612 47.5165 103.029 47.4379C103.446 47.3592 103.831 47.1629 104.14 46.8721C107.411 44.5081 111.939 40.678 113.757 36.8263C115.774 32.533 115.928 27.5559 117.866 23.2389C119.037 20.6454 120.805 18.3655 123.024 16.5853C123.384 16.3521 123.68 16.0329 123.885 15.6566C123.987 15.4689 124.014 15.2502 123.962 15.0434C123.91 14.8366 123.783 14.6567 123.605 14.539Z" fill="white"/>
</g>
<g opacity="0.2">
<path d="M115.577 50.5278C115.863 50.6148 116.17 50.5974 116.444 50.4787C124.001 48.341 130.499 43.4802 134.684 36.8341C138.088 31.345 140.749 24.5097 139.945 18.4186C139.925 17.9761 139.778 17.5488 139.522 17.1871C139.267 16.8254 138.913 16.5444 138.503 16.3774C138.092 16.2103 137.643 16.1641 137.207 16.2443C136.772 16.3245 136.368 16.5278 136.044 16.83C132.612 19.2907 127.871 23.281 125.962 27.3032C123.846 31.7813 123.657 37.0314 121.651 41.4403C120.426 44.1446 118.577 46.5193 116.255 48.3688C115.88 48.6187 115.57 48.9538 115.349 49.3467C115.235 49.5372 115.196 49.763 115.238 49.9808C115.28 50.1987 115.401 50.3934 115.577 50.5278Z" fill="white"/>
</g>
<path d="M139.843 20.6291C139.843 20.6291 139.872 21.1921 139.737 22.1978C139.558 23.6165 139.268 25.0188 138.868 26.3918C138.301 28.4377 137.561 30.4317 136.656 32.3523C135.53 34.6926 134.197 36.9274 132.672 39.0299C131.093 41.1047 129.326 43.0293 127.394 44.7793C125.815 46.2034 124.112 47.4827 122.304 48.6016C121.104 49.3761 119.845 50.0537 118.538 50.6282C118.073 50.8774 117.575 51.0607 117.06 51.1728C116.992 51.0268 119.027 50.1222 121.978 48.1172C123.702 46.9343 125.339 45.6287 126.876 44.2104C128.737 42.4598 130.449 40.557 131.994 38.5217C133.508 36.4706 134.847 34.2948 135.994 32.0176C136.916 30.1445 137.7 28.2065 138.34 26.2192C139.389 22.8157 139.693 20.6034 139.843 20.6291Z" fill="white"/>
<path d="M56.8955 79.1428C73.5644 85.5804 81.6518 107.774 74.0283 127.528C66.4048 147.282 46.2893 156.963 29.6007 150.5C12.9121 144.037 11.9988 126.025 19.6223 106.271C25.9752 89.8092 34.6781 77.5972 47.6926 77.9017C50.8068 77.8218 53.9137 78.2408 56.8955 79.1428Z" fill="#5B7E9A" fill-opacity="0.2"/>
<path d="M60.3557 121.372C67.734 102.261 64.2998 83.133 52.6853 78.649C41.0708 74.1649 25.674 86.0227 18.2957 105.134C10.9174 124.245 14.3516 143.373 25.9661 147.857C37.5807 152.341 52.9774 140.483 60.3557 121.372Z" fill="#5B7E9A" fill-opacity="0.2"/>
<path d="M51.4563 78.1194C51.8534 79.2976 48.0518 81.3847 44.7362 87.0404C42.7577 90.2589 41.3494 93.7946 40.5733 97.492C40.1662 99.5913 40.0434 101.736 40.2084 103.868C40.3286 106.193 40.6738 108.732 40.9863 111.52C41.3468 114.376 41.4533 117.259 41.3047 120.134C41.142 122.839 40.7437 125.525 40.1144 128.16C39.0714 132.65 37.2 136.906 34.5963 140.709C32.8564 143.308 30.5736 145.498 27.9053 147.129C25.9908 148.234 24.6968 148.375 24.4269 147.891C23.6613 146.894 26.9133 143.827 29.4699 137.739C32.7563 129.726 33.8664 120.988 32.6878 112.408C32.3233 109.65 32.1041 106.875 32.0312 104.094C31.9686 101.226 32.3476 98.3647 33.155 95.6115C34.4908 91.0791 36.8575 86.9174 40.0699 83.4523C42.176 81.0698 44.8437 79.2511 47.831 78.1611C48.3033 78.009 48.7839 77.884 49.2705 77.7868C49.6459 77.7327 50.0254 77.7132 50.4044 77.7286C51.0312 77.6805 51.3818 77.8108 51.4563 78.1194Z" fill="#5B7E9A" fill-opacity="0.2"/>
<g opacity="0.3">
<path d="M51.4357 78.0132C51.2313 78.1703 51.2568 78.1506 51.0268 78.3273C48.1715 79.5196 45.6377 81.3685 43.6311 83.7239C42.1994 85.2977 40.954 87.0316 39.9199 88.8911C38.6957 91.0432 37.7248 93.3299 37.0268 95.7054C36.2698 98.3692 35.9192 101.132 35.9867 103.9C36.0831 106.671 36.3603 109.465 36.6522 112.147C37.8717 120.913 36.6288 129.845 33.0626 137.946C31.4956 141.07 29.6589 144.051 27.5734 146.856L27.9824 146.542C30.5058 144.823 32.659 142.617 34.3148 140.052C34.8891 139.265 35.3524 138.361 35.8963 137.455C36.4402 136.55 36.8928 135.552 37.3062 134.503C38.2586 132.299 39.0047 130.012 39.5351 127.67C40.1306 125.082 40.5067 122.448 40.6594 119.797L40.7257 117.714C40.7271 117.002 40.706 116.287 40.6849 115.571C40.6072 114.148 40.5198 112.711 40.3301 111.353C40.0274 108.579 39.6755 106.004 39.5641 103.611C39.4343 101.399 39.6017 99.179 40.0617 97.0112C40.5009 95.0115 41.1302 93.0585 41.9412 91.1786C42.6635 89.5156 43.5191 87.9139 44.4998 86.3889C45.9424 84.1649 47.6799 82.1467 49.6647 80.3895C50.0353 80.1049 50.2634 79.7671 50.5407 79.4932C50.8179 79.2192 51.1029 79.0613 51.2613 78.8177C51.4196 78.5742 51.4317 78.2195 51.4357 78.0132Z" fill="#2A3440"/>
</g>
<path d="M34.9199 93.5447C34.7706 94.2611 34.5631 94.9641 34.2995 95.6468C33.772 97.5608 33.4489 99.5253 33.3357 101.507C33.2027 104.451 33.3078 107.401 33.65 110.328C33.9848 113.647 34.4942 117.299 34.6134 121.211C34.7077 124.918 34.095 128.608 32.8081 132.086C31.7987 134.901 30.5309 137.616 29.0212 140.197C27.767 142.4 26.6164 144.076 25.8797 145.312C25.5114 145.954 25.0706 146.552 24.566 147.094C24.8507 146.417 25.1936 145.766 25.591 145.148C26.2825 143.906 27.3418 142.137 28.5183 139.912C29.9201 137.318 31.1122 134.615 32.0832 131.83C33.2576 128.439 33.8082 124.863 33.7085 121.276C33.603 117.435 33.1034 113.796 32.8296 110.45C32.5132 107.481 32.4594 104.49 32.6686 101.512C32.8452 99.4972 33.2638 97.511 33.9155 95.5964C34.166 94.8744 34.5033 94.1854 34.9199 93.5447Z" fill="#263238"/>
<path d="M49.8859 80.0164C49.9841 80.1442 48.3354 81.6748 46.1809 84.6099C43.3742 88.4165 41.3775 92.7578 40.3139 97.3661C39.1254 102.749 40.1889 107.784 40.4251 111.504C40.5667 112.956 40.6019 114.416 40.5303 115.873C40.5368 116.408 40.4592 116.941 40.3003 117.451C40.1647 117.434 40.3323 115.192 39.8425 111.565C39.3528 107.939 38.3079 102.849 39.5516 97.2202C40.6345 92.5077 42.7599 88.0978 45.7714 84.3149C46.6788 83.1737 47.6647 82.0973 48.7219 81.0934C49.0585 80.6825 49.4502 80.3201 49.8859 80.0164Z" fill="#263238"/>
<path d="M58.1518 82.4447C58.3566 82.5903 58.5389 82.7652 58.6928 82.9639C59.1712 83.5028 59.6108 84.075 60.0081 84.6762C61.4548 86.8878 62.5635 89.3028 63.2975 91.8415C64.3799 95.6176 64.889 99.5348 64.8075 103.462C64.7851 105.781 64.5703 108.093 64.1653 110.376C63.6577 112.807 63.0019 115.204 62.2014 117.554C59.4235 125.822 54.9437 133.416 49.0509 139.847C47.2465 141.78 45.2054 143.477 42.9759 144.899C42.3778 145.297 41.7479 145.645 41.0928 145.939C40.8804 146.06 40.6557 146.158 40.4225 146.231C40.4225 146.231 41.2276 145.612 42.8051 144.624C44.9266 143.115 46.8767 141.378 48.6208 139.446C54.334 132.977 58.692 125.429 61.4372 117.247C64.4402 109.156 64.9064 100.342 62.7737 91.9797C62.0985 89.4685 61.0886 87.0595 59.7713 84.8175C58.78 83.2626 58.0879 82.4938 58.1518 82.4447Z" fill="#263238"/>
<g opacity="0.2">
<path d="M32.6611 89.3873C32.2705 89.4187 31.9047 89.5913 31.6322 89.8729C23.7263 96.4116 18.514 105.64 16.9957 115.786C15.7708 124.164 16.174 133.709 20.3046 140.594C20.5626 141.11 20.9627 141.541 21.4576 141.837C21.9526 142.134 22.5219 142.283 23.0985 142.267C23.6752 142.25 24.2353 142.07 24.7129 141.746C25.1905 141.423 25.5658 140.97 25.7947 140.44C28.6342 135.699 32.228 128.448 32.4285 122.625C32.6342 116.148 30.1185 109.831 30.2211 103.351C30.285 99.4693 31.2612 95.6569 33.0709 92.222C33.3897 91.729 33.5927 91.1702 33.6644 90.5875C33.6734 90.2993 33.5762 90.0178 33.3912 89.7965C33.2063 89.5752 32.9464 89.4296 32.6611 89.3873Z" fill="#5B7E9A" fill-opacity="0.2"/>
</g>
<g opacity="0.2">
<path d="M42.1292 138.824C42.5374 138.794 42.919 138.61 43.1965 138.309C51.4726 131.501 56.945 121.878 58.5647 111.285C59.8497 102.536 59.4674 92.5689 55.2113 85.4147C54.9304 84.8888 54.5092 84.4511 53.9944 84.1504C53.4796 83.8496 52.8914 83.6975 52.2954 83.7111C51.6993 83.7246 51.1187 83.9033 50.6181 84.2271C50.1175 84.551 49.7166 85.0073 49.4599 85.5454C46.4905 90.4882 42.7708 97.9985 42.5063 104.135C42.2876 110.886 44.8905 117.502 44.7749 124.255C44.6938 128.313 43.66 132.295 41.7568 135.88C41.424 136.391 41.2175 136.975 41.1544 137.582C41.1409 137.871 41.2318 138.156 41.4108 138.384C41.5897 138.612 41.8447 138.768 42.1292 138.824Z" fill="#5B7E9A" fill-opacity="0.2"/>
</g>
<path d="M56.3294 88.1928C56.6306 88.8405 56.8538 89.5217 56.9941 90.2221C57.2341 91.0243 57.4265 91.8399 57.5702 92.6649C57.8013 93.7616 57.9744 94.8699 58.0886 95.9849C58.4682 98.8555 58.6073 101.753 58.5042 104.647C58.3454 108.19 57.8683 111.712 57.0785 115.17C56.2261 118.615 55.0698 121.979 53.6233 125.22C52.416 127.849 50.9896 130.372 49.3592 132.762C48.6943 133.801 47.9726 134.66 47.363 135.454C46.8663 136.128 46.3291 136.771 45.7544 137.38C45.3012 137.936 44.7955 138.447 44.2443 138.906C44.1363 138.766 46.196 136.553 48.8495 132.443C50.3854 130.036 51.7375 127.516 52.8945 124.906C55.7602 118.483 57.42 111.588 57.791 104.565C57.9266 101.71 57.8484 98.8498 57.5571 96.0072C57.0602 91.2075 56.1623 88.2399 56.3294 88.1928Z" fill="white"/>
<path d="M101.295 -8.90962C105.99 3.31239 97.9511 18.6107 83.4383 24.2118C68.9256 29.8128 53.8451 23.618 49.1788 11.3538C44.5125 -0.910463 53.7903 -10.2317 68.2647 -15.8033C80.3227 -20.4736 91.2337 -21.7434 97.4724 -14.5476C99.0422 -12.8866 100.333 -10.9827 101.295 -8.90962Z" fill="#5B7E9A" fill-opacity="0.2"/>
<path d="M99.4952 -11.4106C96.2114 -19.9208 82.2083 -22.4435 68.2185 -17.0453C54.2286 -11.6471 45.5496 -0.372124 48.8334 8.13804C52.1171 16.6482 66.1202 19.1709 80.1101 13.7727C94.1 8.3745 102.779 -2.90048 99.4952 -11.4106Z" fill="white"/>
<path d="M99.197 -12.276C98.9038 -11.7053 95.9073 -13.0406 91.0082 -12.2235C88.1854 -11.7954 85.4646 -10.8554 82.9796 -9.44958C80.2346 -7.97087 78.0056 -5.34429 75.2732 -2.20914C73.9324 -0.645513 72.4588 0.799157 70.8689 2.10873C69.3766 3.33289 67.7764 4.41928 66.088 5.35451C63.2421 7.00154 60.1209 8.11856 56.8762 8.65132C54.6867 9.01845 52.447 8.95889 50.2801 8.47591C48.7674 8.09369 48.0299 7.58329 48.0851 7.33772C48.2162 6.6884 51.4678 7.21819 56.2337 5.75165C62.4352 3.72597 67.9441 0.00111545 72.1342 -4.9995C73.4419 -6.47132 74.7712 -8.02074 76.2507 -9.40108C77.7001 -10.7964 79.3566 -11.9592 81.1614 -12.8482C84.1565 -14.3381 87.4455 -15.1433 90.7901 -15.2054C93.036 -15.2749 95.2686 -14.8369 97.3216 -13.9238C98.7055 -13.2597 99.2876 -12.5284 99.197 -12.276Z" fill="#5B7E9A" fill-opacity="0.2"/>
<g opacity="0.3">
<path d="M99.2611 -12.325C99.0892 -12.4165 99.0999 -12.3232 98.8957 -12.4304C96.8424 -13.3891 94.5929 -13.8533 92.3278 -13.7857C90.7687 -13.7883 89.2144 -13.6104 87.6962 -13.2554C85.9336 -12.8662 84.2234 -12.2687 82.6019 -11.4756C80.7884 -10.5695 79.1203 -9.39777 77.6529 -7.99909C76.1977 -6.59691 74.8152 -5.12125 73.5108 -3.57788C69.3541 1.39716 63.8922 5.11427 57.739 7.15566C55.2765 7.8501 52.757 8.32349 50.2104 8.57022L50.5886 8.66578C52.7568 9.19655 55.0108 9.27697 57.2112 8.9021C57.9226 8.823 58.636 8.64076 59.3916 8.48702C60.1472 8.33329 60.9147 8.08916 61.6881 7.79986C63.3551 7.23546 64.9654 6.51553 66.4977 5.64956C68.1944 4.7073 69.803 3.61443 71.3041 2.38416L72.582 1.40256L73.7617 0.293179C74.4911 -0.450051 75.1882 -1.20902 75.8755 -1.98076C77.2244 -3.50463 78.4486 -4.95293 79.6912 -6.19196C80.8267 -7.34618 82.1169 -8.33723 83.5248 -9.13675C84.8201 -9.89273 86.1914 -10.5102 87.616 -10.979C90.7129 -12.0444 93.9998 -12.4436 97.2616 -12.1505C97.6006 -12.1061 97.9032 -12.1353 98.1871 -12.1096C98.471 -12.0839 98.7098 -12.0641 98.9033 -12.0502C99.0968 -12.0363 99.1461 -12.2367 99.2611 -12.325Z" fill="#2A3440"/>
</g>
<path d="M82.7272 -13.7461C80.945 -12.881 79.2561 -11.8356 77.687 -10.6262C76.0221 -9.23736 74.4735 -7.71479 73.0566 -6.07369C71.4176 -4.26608 69.6851 -2.18346 67.6196 -0.190465C65.6613 1.69434 63.3633 3.19065 60.8475 4.21915C58.814 5.0461 56.7105 5.68946 54.5624 6.14152C52.7937 6.48419 51.253 6.75331 50.2332 6.90686C49.6989 7.0194 49.1525 7.06361 48.6071 7.03841C48.5286 6.93618 50.8435 6.45831 54.4203 5.55981C59.1094 4.58503 63.4592 2.39294 67.0325 -0.796055C69.0439 -2.7272 70.7862 -4.79703 72.4576 -6.58889C73.929 -8.21698 75.5402 -9.71299 77.2727 -11.0598C78.457 -11.9571 79.7515 -12.6988 81.1245 -13.2667C81.6295 -13.5116 82.1707 -13.6735 82.7272 -13.7461Z" fill="#263238"/>
<path d="M97.3764 -12.2389C97.3685 -12.0905 95.7042 -12.1938 93.0583 -11.9087C89.6201 -11.5333 86.2939 -10.4644 83.2807 -8.76655C80.402 -6.85889 77.8323 -4.52178 75.6609 -1.83649C74.7506 -0.68629 73.6128 0.263771 72.3187 0.954368C72.25 0.864918 73.4984 -0.155016 75.2181 -2.22783C77.3107 -5.08862 79.8987 -7.55146 82.8597 -9.49973C85.9618 -11.2428 89.4192 -12.2591 92.9712 -12.4717C94.4423 -12.6403 95.9313 -12.5616 97.3764 -12.2389Z" fill="#263238"/>
<path d="M100.123 -6.54643C100.162 -5.83974 100.081 -5.13162 99.8833 -4.45198C99.4062 -2.56387 98.6504 -0.757419 97.6406 0.907794C96.1096 3.34837 94.2256 5.54876 92.05 7.43738C90.7899 8.58702 89.4348 9.62794 87.9992 10.549C86.4352 11.4826 84.8102 12.3099 83.1353 13.0255C77.2703 15.6006 70.9272 16.907 64.522 16.8592C62.5809 16.8203 60.6529 16.5327 58.785 16.0036C58.2779 15.8668 57.7823 15.6904 57.3028 15.476C56.9757 15.3411 56.8039 15.2497 56.8196 15.2173C59.3366 15.8852 61.9272 16.2364 64.5312 16.2629C70.8266 16.1434 77.0359 14.7783 82.8008 12.2462C88.6479 9.90291 93.6476 5.84271 97.1408 0.600899C98.1863 -0.969808 99.0165 -2.67358 99.6092 -4.46493C99.9579 -5.80968 100.046 -6.56809 100.123 -6.54643Z" fill="#263238"/>
<g opacity="0.2">
<path d="M83.8276 -16.9687C83.6145 -17.1687 83.333 -17.2796 83.0408 -17.2787C75.6095 -18.3573 68.042 -16.648 61.7958 -12.48C56.6532 -9.01732 51.6659 -4.10938 49.9615 1.52781C49.8064 1.92277 49.7675 2.35385 49.8495 2.77018C49.9315 3.18651 50.1309 3.5707 50.4242 3.87737C50.7174 4.18405 51.0923 4.40043 51.5045 4.50095C51.9168 4.60147 52.3492 4.58193 52.7507 4.44465C56.7056 3.64171 62.4109 2.02254 65.6568 -0.734997C69.2665 -3.81257 71.4614 -8.28228 75.0092 -11.4139C77.1462 -13.2928 79.6972 -14.6396 82.454 -15.3446C82.8778 -15.4085 83.2791 -15.5771 83.6215 -15.8351C83.7911 -15.9642 83.9063 -16.1521 83.9445 -16.3619C83.9826 -16.5716 83.9409 -16.7881 83.8276 -16.9687Z" fill="white"/>
</g>
<g opacity="0.2">
<path d="M61.6583 12.4959C61.8824 12.693 62.1693 12.8039 62.4676 12.8089C70.2334 13.9818 78.1585 12.2372 84.7138 7.91159C90.0805 4.31744 95.3264 -0.809415 97.1086 -6.68921C97.2725 -7.10069 97.3152 -7.5505 97.2317 -7.98548C97.1482 -8.42047 96.9419 -8.82247 96.6373 -9.14398C96.3326 -9.46549 95.9423 -9.69309 95.5124 -9.79988C95.0826 -9.90667 94.6311 -9.88819 94.2114 -9.74663C90.0698 -8.92219 84.1041 -7.24521 80.7048 -4.36988C76.9291 -1.1647 74.5886 3.53872 70.9415 6.7263C68.7098 8.68382 66.045 10.0832 63.1665 10.8091C62.722 10.8819 62.301 11.0591 61.9381 11.326C61.7558 11.4525 61.6264 11.6417 61.5748 11.8575C61.5232 12.0734 61.5529 12.3006 61.6583 12.4959Z" fill="white"/>
</g>
<path d="M96.1031 -4.71797C96.1031 -4.71797 95.8964 -4.19346 95.3584 -3.33319C94.6101 -2.11479 93.7667 -0.957377 92.8361 0.128269C91.4745 1.75733 89.9771 3.26786 88.3599 4.64358C86.3683 6.31032 84.2314 7.79538 81.9748 9.08097C79.6804 10.3189 77.2766 11.3424 74.794 12.1385C72.7682 12.7839 70.6885 13.2458 68.58 13.5185C67.1676 13.7286 65.7407 13.8259 64.3129 13.8094C63.7865 13.8444 63.2579 13.806 62.7421 13.6954C62.7402 13.5342 64.9674 13.5505 68.4831 12.9428C70.5419 12.5772 72.5717 12.0638 74.5567 11.4064C76.9746 10.5803 79.3194 9.55394 81.5666 8.33797C83.7932 7.09525 85.9105 5.666 87.8956 4.06559C89.5087 2.74025 91.0228 1.29877 92.4257 -0.247312C94.7864 -2.91408 95.9764 -4.80353 96.1031 -4.71797Z" fill="white"/>
</svg>
