<svg width="20" height="20" viewBox="0 0 20 20" fill="none" xmlns="http://www.w3.org/2000/svg">
<path d="M10 4.99996C10.9205 4.99996 11.6667 4.25377 11.6667 3.33329C11.6667 2.41282 10.9205 1.66663 10 1.66663C9.07957 1.66663 8.33337 2.41282 8.33337 3.33329C8.33337 4.25377 9.07957 4.99996 10 4.99996Z" stroke="#35536B" stroke-width="2" stroke-linecap="round" stroke-linejoin="round"/>
<path d="M8.50002 2.66663C4.58335 3.33329 1.66669 6.74996 1.66669 10.8333C1.66669 11.2753 1.84228 11.6992 2.15484 12.0118C2.4674 12.3244 2.89133 12.5 3.33335 12.5C3.77538 12.5 4.1993 12.3244 4.51186 12.0118C4.82443 11.6992 5.00002 11.2753 5.00002 10.8333V9.99996C5.00002 9.55793 5.17561 9.13401 5.48818 8.82145C5.80074 8.50889 6.22466 8.33329 6.66669 8.33329C7.10871 8.33329 7.53264 8.50889 7.8452 8.82145C8.15776 9.13401 8.33335 9.55793 8.33335 9.99996V13.3333C8.33335 13.7753 8.50895 14.1992 8.82151 14.5118C9.13407 14.8244 9.55799 15 10 15C10.442 15 10.866 14.8244 11.1785 14.5118C11.4911 14.1992 11.6667 13.7753 11.6667 13.3333V9.99996C11.6667 9.55793 11.8423 9.13401 12.1548 8.82145C12.4674 8.50889 12.8913 8.33329 13.3334 8.33329C13.7754 8.33329 14.1993 8.50889 14.5119 8.82145C14.8244 9.13401 15 9.55793 15 9.99996V10.8333C15 11.2753 15.1756 11.6992 15.4882 12.0118C15.8007 12.3244 16.2247 12.5 16.6667 12.5C17.1087 12.5 17.5326 12.3244 17.8452 12.0118C18.1578 11.6992 18.3334 11.2753 18.3334 10.8333C18.3334 6.74996 15.4167 3.33329 11.5 2.66663" stroke="#35536B" stroke-width="2" stroke-linecap="round" stroke-linejoin="round"/>
<path d="M2.66669 12.3333C3.02644 14.0112 3.95072 15.5149 5.28528 16.5937C6.61985 17.6724 8.28399 18.2609 10 18.2609C11.7161 18.2609 13.3802 17.6724 14.7148 16.5937C16.0493 15.5149 16.9736 14.0112 17.3334 12.3333" stroke="#35536B" stroke-width="2" stroke-linecap="round" stroke-linejoin="round"/>
</svg>
